<?xml version="1.0" encoding="UTF-8" standalone="no"?>
<!DOCTYPE svg PUBLIC "-//W3C//DTD SVG 1.1//EN" "http://www.w3.org/Graphics/SVG/1.1/DTD/svg11.dtd">
<svg width="100%" height="100%" viewBox="0 0 125 125" version="1.1" xmlns="http://www.w3.org/2000/svg" xmlns:xlink="http://www.w3.org/1999/xlink" xml:space="preserve" xmlns:serif="http://www.serif.com/" style="fill-rule:evenodd;clip-rule:evenodd;stroke-linejoin:round;stroke-miterlimit:2;">
    <g transform="matrix(1,0,0,1,-1842.301962,-1141.297371)">
        <g transform="matrix(1.333333,0,0,1.333333,0,0)">
            <g id="Blue-Spiral" serif:id="Blue Spiral">
                <g transform="matrix(1,0,0,1,1458.7352,936.7192)">
                    <path d="M0,-68.398C-18.858,-85.195 -47.865,-83.518 -64.661,-64.661C-81.458,-45.803 -79.78,-16.797 -60.922,0C-42.065,16.796 -13.059,15.12 3.737,-3.738C20.534,-22.595 18.857,-51.602 0,-68.398M-61.435,0.575C-80.609,-16.504 -82.315,-45.999 -65.236,-65.173C-48.158,-84.347 -18.663,-86.052 0.512,-68.973C19.686,-51.894 21.391,-22.4 4.312,-3.226C-12.767,15.949 -42.26,17.654 -61.435,0.575" style="fill:rgb(95,179,228);fill-rule:nonzero;"/>
                </g>
                <g transform="matrix(1,0,0,1,1459.5559,913.7159)">
                    <path d="M0,-44.561C-0.076,-44.629 -0.09,-44.747 -0.027,-44.828C0.039,-44.911 0.159,-44.926 0.243,-44.86C0.645,-44.544 1.046,-44.209 1.435,-43.868C1.514,-43.798 1.522,-43.677 1.452,-43.597C1.381,-43.517 1.26,-43.509 1.18,-43.579C0.796,-43.916 0.397,-44.249 0,-44.561M3.379,-41.427L3.365,-41.441C3.023,-41.813 2.666,-42.182 2.301,-42.539C2.225,-42.613 2.224,-42.735 2.298,-42.811C2.372,-42.887 2.499,-42.88 2.57,-42.814C2.94,-42.453 3.303,-42.078 3.649,-41.701C3.721,-41.623 3.716,-41.501 3.637,-41.429C3.563,-41.362 3.452,-41.362 3.379,-41.427M-2.519,-46.338C-2.588,-46.4 -2.604,-46.503 -2.554,-46.584C-2.497,-46.675 -2.378,-46.702 -2.289,-46.645C-1.847,-46.369 -1.414,-46.079 -0.999,-45.786C-0.903,-45.722 -0.892,-45.604 -0.953,-45.518C-1.014,-45.431 -1.134,-45.411 -1.22,-45.472C-1.63,-45.761 -2.058,-46.046 -2.493,-46.319L-2.519,-46.338ZM5.336,-39.053L5.309,-39.083C5.009,-39.49 4.692,-39.896 4.369,-40.289C4.302,-40.371 4.313,-40.492 4.395,-40.559C4.478,-40.627 4.601,-40.613 4.666,-40.534C4.994,-40.136 5.315,-39.724 5.619,-39.31C5.682,-39.225 5.664,-39.104 5.578,-39.042C5.504,-38.987 5.403,-38.993 5.336,-39.053M-5.211,-47.83C-5.274,-47.886 -5.294,-47.978 -5.256,-48.057C-5.21,-48.153 -5.095,-48.193 -4.999,-48.147C-4.54,-47.924 -4.077,-47.684 -3.623,-47.433C-3.53,-47.381 -3.497,-47.264 -3.548,-47.171C-3.6,-47.078 -3.717,-47.044 -3.81,-47.096C-4.258,-47.343 -4.714,-47.581 -5.167,-47.801C-5.184,-47.809 -5.198,-47.818 -5.211,-47.83M7.025,-36.481C7.01,-36.494 6.997,-36.51 6.987,-36.528C6.729,-36.969 6.459,-37.407 6.182,-37.829C6.124,-37.918 6.149,-38.037 6.238,-38.095C6.327,-38.153 6.444,-38.128 6.505,-38.039C6.784,-37.612 7.059,-37.169 7.319,-36.722C7.373,-36.63 7.342,-36.512 7.25,-36.459C7.176,-36.416 7.086,-36.427 7.025,-36.481M-8.048,-49.021C-8.105,-49.071 -8.129,-49.153 -8.101,-49.229C-8.065,-49.329 -7.956,-49.381 -7.855,-49.346C-7.368,-49.171 -6.882,-48.983 -6.411,-48.785C-6.314,-48.749 -6.267,-48.631 -6.308,-48.533C-6.349,-48.435 -6.462,-48.389 -6.56,-48.43C-7.025,-48.625 -7.505,-48.812 -7.985,-48.983C-8.009,-48.992 -8.03,-49.005 -8.048,-49.021M8.427,-33.736C8.408,-33.753 8.391,-33.775 8.379,-33.802C8.173,-34.265 7.952,-34.729 7.72,-35.184C7.672,-35.279 7.709,-35.394 7.804,-35.443C7.899,-35.49 8.013,-35.452 8.063,-35.359C8.298,-34.898 8.522,-34.427 8.731,-33.957C8.774,-33.861 8.731,-33.746 8.633,-33.704C8.562,-33.672 8.482,-33.687 8.427,-33.736M-10.993,-49.897C-11.044,-49.942 -11.069,-50.014 -11.052,-50.085C-11.027,-50.188 -10.923,-50.253 -10.82,-50.227C-10.319,-50.108 -9.817,-49.973 -9.326,-49.826C-9.224,-49.795 -9.166,-49.69 -9.197,-49.587C-9.227,-49.485 -9.334,-49.427 -9.436,-49.458C-9.92,-49.602 -10.416,-49.735 -10.909,-49.853C-10.941,-49.861 -10.97,-49.876 -10.993,-49.897M9.521,-30.855C9.496,-30.878 9.476,-30.906 9.467,-30.94C9.313,-31.42 9.143,-31.907 8.962,-32.385C8.923,-32.484 8.974,-32.595 9.073,-32.633C9.173,-32.67 9.284,-32.62 9.321,-32.522C9.506,-32.037 9.678,-31.544 9.833,-31.057C9.865,-30.956 9.809,-30.848 9.708,-30.816C9.641,-30.794 9.57,-30.812 9.521,-30.855M-14.017,-50.45C-14.062,-50.491 -14.088,-50.553 -14.08,-50.618C-14.066,-50.724 -13.97,-50.798 -13.865,-50.785C-13.358,-50.72 -12.843,-50.64 -12.334,-50.548C-12.232,-50.527 -12.161,-50.428 -12.18,-50.323C-12.199,-50.219 -12.299,-50.15 -12.404,-50.169C-12.905,-50.261 -13.413,-50.339 -13.913,-50.403C-13.953,-50.409 -13.989,-50.425 -14.017,-50.45M10.301,-27.874C10.271,-27.9 10.249,-27.937 10.241,-27.979C10.138,-28.48 10.021,-28.981 9.893,-29.469C9.866,-29.572 9.928,-29.677 10.031,-29.704C10.133,-29.731 10.239,-29.67 10.266,-29.567C10.395,-29.072 10.514,-28.564 10.617,-28.056C10.639,-27.953 10.572,-27.85 10.468,-27.829C10.406,-27.817 10.345,-27.835 10.301,-27.874M-17.085,-50.675C-17.126,-50.711 -17.151,-50.764 -17.15,-50.823C-17.147,-50.929 -17.06,-51.014 -16.953,-51.011C-16.436,-51.001 -15.915,-50.977 -15.407,-50.939C-15.3,-50.93 -15.221,-50.839 -15.229,-50.733C-15.237,-50.627 -15.329,-50.548 -15.435,-50.555C-15.937,-50.592 -16.45,-50.616 -16.962,-50.626C-17.009,-50.627 -17.052,-50.646 -17.085,-50.675M10.754,-24.829C10.719,-24.86 10.695,-24.905 10.691,-24.955C10.643,-25.457 10.581,-25.968 10.507,-26.473C10.49,-26.579 10.563,-26.676 10.669,-26.692C10.774,-26.707 10.871,-26.633 10.887,-26.53C10.963,-26.017 11.026,-25.5 11.073,-24.991C11.083,-24.885 11.006,-24.791 10.9,-24.782C10.844,-24.776 10.793,-24.795 10.754,-24.829M-20.16,-50.571C-20.196,-50.603 -20.219,-50.647 -20.224,-50.698C-20.233,-50.804 -20.155,-50.898 -20.049,-50.907C-19.533,-50.952 -19.013,-50.984 -18.503,-51C-18.395,-51.005 -18.307,-50.919 -18.304,-50.814C-18.3,-50.708 -18.384,-50.619 -18.49,-50.616C-18.993,-50.599 -19.507,-50.568 -20.016,-50.523C-20.07,-50.518 -20.122,-50.537 -20.16,-50.571M10.879,-21.755C10.839,-21.791 10.814,-21.843 10.815,-21.901C10.822,-22.405 10.814,-22.919 10.794,-23.429C10.79,-23.536 10.872,-23.626 10.978,-23.63C11.086,-23.633 11.174,-23.549 11.178,-23.445C11.199,-22.928 11.206,-22.407 11.2,-21.897C11.198,-21.79 11.111,-21.705 11.005,-21.706C10.957,-21.707 10.913,-21.725 10.879,-21.755M-23.209,-50.138C-23.239,-50.165 -23.261,-50.201 -23.27,-50.245C-23.29,-50.348 -23.222,-50.45 -23.118,-50.471C-22.616,-50.569 -22.102,-50.657 -21.59,-50.73C-21.485,-50.743 -21.387,-50.671 -21.372,-50.567C-21.357,-50.461 -21.43,-50.364 -21.535,-50.349C-22.041,-50.277 -22.549,-50.19 -23.044,-50.093C-23.105,-50.081 -23.166,-50.099 -23.209,-50.138M10.674,-18.686C10.628,-18.726 10.603,-18.787 10.611,-18.852C10.672,-19.362 10.72,-19.874 10.754,-20.374C10.761,-20.48 10.852,-20.56 10.958,-20.553C11.064,-20.546 11.145,-20.455 11.138,-20.348C11.104,-19.842 11.055,-19.323 10.993,-18.806C10.98,-18.701 10.885,-18.626 10.779,-18.638C10.739,-18.643 10.703,-18.66 10.674,-18.686M-26.194,-49.38C-26.219,-49.403 -26.239,-49.432 -26.249,-49.467C-26.281,-49.568 -26.224,-49.676 -26.123,-49.707C-25.629,-49.862 -25.127,-50.004 -24.631,-50.129C-24.526,-50.157 -24.424,-50.093 -24.397,-49.99C-24.371,-49.887 -24.433,-49.783 -24.536,-49.757C-25.025,-49.632 -25.521,-49.492 -26.009,-49.34C-26.076,-49.319 -26.145,-49.337 -26.194,-49.38M10.142,-15.657C10.091,-15.703 10.066,-15.773 10.082,-15.845C10.196,-16.331 10.298,-16.834 10.387,-17.34C10.406,-17.445 10.505,-17.515 10.61,-17.497C10.715,-17.479 10.784,-17.378 10.767,-17.274C10.676,-16.76 10.572,-16.251 10.457,-15.757C10.433,-15.654 10.33,-15.59 10.226,-15.614C10.194,-15.621 10.165,-15.636 10.142,-15.657M-29.081,-48.304C-29.102,-48.322 -29.118,-48.345 -29.13,-48.371C-29.172,-48.469 -29.128,-48.582 -29.03,-48.624C-28.553,-48.832 -28.069,-49.028 -27.591,-49.205C-27.49,-49.242 -27.38,-49.189 -27.344,-49.091C-27.307,-48.992 -27.358,-48.881 -27.457,-48.844C-27.928,-48.669 -28.405,-48.476 -28.877,-48.272C-28.948,-48.24 -29.027,-48.255 -29.081,-48.304M9.286,-12.707C9.23,-12.757 9.206,-12.839 9.232,-12.914C9.4,-13.394 9.556,-13.883 9.697,-14.367C9.726,-14.469 9.833,-14.528 9.935,-14.498C10.035,-14.468 10.096,-14.362 10.066,-14.26C9.924,-13.769 9.766,-13.274 9.596,-12.787C9.561,-12.687 9.451,-12.634 9.35,-12.669C9.326,-12.677 9.304,-12.691 9.286,-12.707M-31.837,-46.921C-31.852,-46.934 -31.865,-46.95 -31.876,-46.969C-31.929,-47.061 -31.897,-47.179 -31.805,-47.232C-31.36,-47.486 -30.9,-47.733 -30.437,-47.966C-30.342,-48.014 -30.227,-47.977 -30.179,-47.881C-30.13,-47.785 -30.169,-47.67 -30.264,-47.622C-30.721,-47.392 -31.175,-47.149 -31.613,-46.898C-31.687,-46.855 -31.777,-46.867 -31.837,-46.921M8.113,-9.861C8.051,-9.916 8.03,-10.008 8.068,-10.088C8.286,-10.547 8.496,-11.017 8.688,-11.485C8.729,-11.583 8.841,-11.63 8.939,-11.59C9.036,-11.545 9.084,-11.436 9.044,-11.338C8.849,-10.864 8.637,-10.388 8.415,-9.921C8.369,-9.826 8.254,-9.785 8.158,-9.831C8.142,-9.838 8.127,-9.849 8.113,-9.861M-34.421,-45.249L-34.449,-45.28C-34.512,-45.366 -34.493,-45.486 -34.406,-45.549C-33.995,-45.848 -33.565,-46.143 -33.129,-46.425C-33.041,-46.483 -32.924,-46.457 -32.863,-46.368C-32.805,-46.279 -32.831,-46.16 -32.92,-46.102C-33.35,-45.824 -33.774,-45.532 -34.18,-45.237C-34.255,-45.183 -34.355,-45.19 -34.421,-45.249M6.64,-7.159C6.572,-7.22 6.555,-7.324 6.605,-7.404C6.869,-7.831 7.127,-8.275 7.373,-8.725C7.424,-8.819 7.54,-8.853 7.633,-8.802C7.731,-8.747 7.761,-8.634 7.71,-8.541C7.462,-8.085 7.2,-7.635 6.932,-7.202C6.876,-7.111 6.757,-7.083 6.667,-7.139L6.64,-7.159ZM-36.81,-43.308L-36.824,-43.323C-36.896,-43.401 -36.89,-43.524 -36.811,-43.595C-36.429,-43.942 -36.033,-44.281 -35.635,-44.605C-35.552,-44.671 -35.437,-44.663 -35.364,-44.577C-35.297,-44.494 -35.31,-44.373 -35.392,-44.305C-35.785,-43.987 -36.175,-43.651 -36.552,-43.31C-36.626,-43.243 -36.737,-43.244 -36.81,-43.308M4.889,-4.628C4.814,-4.695 4.798,-4.814 4.86,-4.894C5.17,-5.293 5.475,-5.707 5.766,-6.125C5.827,-6.213 5.946,-6.234 6.034,-6.174C6.128,-6.112 6.143,-5.994 6.082,-5.906C5.787,-5.482 5.478,-5.062 5.164,-4.658C5.099,-4.574 4.973,-4.563 4.889,-4.628M-39.479,-40.538C-39.557,-40.607 -39.568,-40.727 -39.5,-40.807C-39.333,-41.005 -39.164,-41.201 -38.99,-41.395C-38.643,-41.784 -38.286,-42.164 -37.93,-42.524C-37.855,-42.598 -37.756,-42.592 -37.657,-42.525C-37.582,-42.45 -37.582,-42.328 -37.656,-42.252C-38.009,-41.898 -38.36,-41.522 -38.703,-41.138C-38.874,-40.947 -39.042,-40.754 -39.206,-40.559C-39.275,-40.478 -39.398,-40.47 -39.479,-40.538M2.864,-2.31C2.787,-2.384 2.782,-2.509 2.856,-2.585C3.121,-2.859 3.38,-3.141 3.635,-3.427L3.89,-3.712C3.959,-3.793 4.081,-3.801 4.161,-3.732C4.239,-3.662 4.249,-3.539 4.18,-3.46L3.924,-3.172C3.664,-2.88 3.402,-2.595 3.133,-2.317C3.061,-2.243 2.941,-2.242 2.864,-2.31M-41.337,-38.085C-41.408,-38.149 -41.424,-38.256 -41.369,-38.337C-41.08,-38.764 -40.776,-39.189 -40.467,-39.597C-40.403,-39.682 -40.282,-39.699 -40.198,-39.635C-40.109,-39.579 -40.096,-39.45 -40.16,-39.365C-40.465,-38.962 -40.764,-38.543 -41.049,-38.121C-41.109,-38.033 -41.229,-38.01 -41.317,-38.069L-41.337,-38.085ZM0.614,-0.21L0.594,-0.231C0.526,-0.313 0.537,-0.434 0.619,-0.502C1.005,-0.825 1.391,-1.165 1.765,-1.513C1.844,-1.586 1.971,-1.592 2.038,-1.503C2.11,-1.426 2.106,-1.304 2.028,-1.231C1.649,-0.878 1.257,-0.534 0.865,-0.206C0.791,-0.145 0.684,-0.148 0.614,-0.21M-42.919,-35.445C-42.984,-35.503 -43.004,-35.599 -42.961,-35.679C-42.719,-36.138 -42.463,-36.593 -42.202,-37.029C-42.147,-37.12 -42.028,-37.149 -41.937,-37.095C-41.836,-37.032 -41.817,-36.921 -41.871,-36.831C-42.13,-36.401 -42.382,-35.953 -42.621,-35.499C-42.671,-35.405 -42.787,-35.369 -42.881,-35.419C-42.895,-35.426 -42.919,-35.445 -42.919,-35.445M-1.849,1.633C-1.861,1.622 -1.872,1.61 -1.881,1.597C-1.94,1.508 -1.916,1.388 -1.829,1.329C-1.401,1.044 -0.981,0.747 -0.58,0.447C-0.494,0.384 -0.375,0.404 -0.31,0.486C-0.246,0.571 -0.264,0.692 -0.349,0.755C-0.756,1.06 -1.181,1.36 -1.614,1.649C-1.689,1.699 -1.786,1.69 -1.849,1.633M-44.206,-32.65C-44.264,-32.702 -44.287,-32.787 -44.256,-32.864C-44.067,-33.344 -43.862,-33.823 -43.647,-34.289C-43.602,-34.385 -43.488,-34.428 -43.392,-34.383C-43.298,-34.334 -43.253,-34.225 -43.297,-34.128C-43.509,-33.669 -43.712,-33.196 -43.899,-32.723C-43.938,-32.624 -44.05,-32.575 -44.148,-32.615C-44.17,-32.623 -44.189,-32.636 -44.206,-32.65M-4.502,3.198C-4.519,3.183 -4.534,3.165 -4.545,3.143C-4.594,3.049 -4.558,2.932 -4.463,2.884C-4.016,2.652 -3.565,2.402 -3.123,2.141C-3.031,2.086 -2.914,2.118 -2.859,2.209C-2.805,2.3 -2.836,2.418 -2.927,2.472C-3.375,2.737 -3.832,2.99 -4.286,3.225C-4.359,3.263 -4.444,3.25 -4.502,3.198M-45.18,-29.737C-45.233,-29.784 -45.258,-29.859 -45.238,-29.932C-45.102,-30.424 -44.95,-30.922 -44.786,-31.411C-44.753,-31.512 -44.644,-31.567 -44.543,-31.533C-44.445,-31.5 -44.388,-31.391 -44.422,-31.29C-44.583,-30.806 -44.733,-30.315 -44.866,-29.829C-44.895,-29.727 -45.001,-29.667 -45.104,-29.695C-45.133,-29.703 -45.159,-29.718 -45.18,-29.737M-7.31,4.468C-7.332,4.449 -7.35,4.424 -7.362,4.394C-7.4,4.296 -7.351,4.184 -7.252,4.145C-6.776,3.96 -6.301,3.761 -5.841,3.553C-5.745,3.509 -5.63,3.552 -5.586,3.649C-5.542,3.745 -5.586,3.859 -5.682,3.903C-6.148,4.115 -6.63,4.317 -7.113,4.504C-7.182,4.531 -7.258,4.515 -7.31,4.468M-45.835,-26.734C-45.882,-26.776 -45.907,-26.841 -45.897,-26.909C-45.815,-27.418 -45.717,-27.93 -45.608,-28.429C-45.585,-28.533 -45.483,-28.599 -45.379,-28.576C-45.277,-28.555 -45.209,-28.452 -45.232,-28.347C-45.34,-27.855 -45.435,-27.35 -45.516,-26.847C-45.534,-26.742 -45.632,-26.671 -45.737,-26.688C-45.775,-26.694 -45.808,-26.711 -45.835,-26.734M-10.24,5.426C-10.267,5.402 -10.287,5.37 -10.297,5.333C-10.326,5.23 -10.265,5.124 -10.162,5.097C-9.664,4.963 -9.17,4.815 -8.694,4.66C-8.594,4.627 -8.486,4.681 -8.452,4.784C-8.419,4.884 -8.474,4.993 -8.575,5.026C-9.057,5.184 -9.557,5.333 -10.062,5.468C-10.127,5.486 -10.193,5.468 -10.24,5.426M-46.163,-23.676C-46.205,-23.713 -46.23,-23.769 -46.228,-23.83C-46.201,-24.347 -46.159,-24.867 -46.104,-25.373C-46.093,-25.479 -45.998,-25.555 -45.892,-25.544C-45.787,-25.534 -45.709,-25.439 -45.721,-25.332C-45.775,-24.832 -45.816,-24.32 -45.843,-23.809C-45.849,-23.704 -45.939,-23.622 -46.046,-23.627C-46.091,-23.629 -46.132,-23.648 -46.163,-23.676M-13.252,6.062C-13.284,6.034 -13.307,5.994 -13.315,5.948C-13.331,5.843 -13.259,5.744 -13.154,5.728C-12.651,5.65 -12.146,5.557 -11.65,5.453C-11.545,5.431 -11.444,5.498 -11.422,5.601C-11.4,5.705 -11.466,5.807 -11.57,5.829C-12.073,5.936 -12.586,6.03 -13.094,6.109C-13.154,6.118 -13.211,6.099 -13.252,6.062M-46.162,-20.599C-46.199,-20.632 -46.223,-20.679 -46.226,-20.733C-46.254,-21.253 -46.269,-21.774 -46.268,-22.281C-46.267,-22.388 -46.181,-22.474 -46.075,-22.474C-45.968,-22.472 -45.882,-22.386 -45.883,-22.281C-45.883,-21.78 -45.87,-21.266 -45.842,-20.753C-45.836,-20.647 -45.917,-20.556 -46.024,-20.551C-46.076,-20.548 -46.125,-20.567 -46.162,-20.599M-16.315,6.373C-16.352,6.34 -16.377,6.292 -16.379,6.238C-16.385,6.132 -16.302,6.042 -16.196,6.037C-15.689,6.013 -15.177,5.974 -14.672,5.923C-14.566,5.915 -14.471,5.992 -14.461,6.095C-14.45,6.201 -14.527,6.296 -14.633,6.307C-15.144,6.359 -15.664,6.397 -16.178,6.422C-16.231,6.424 -16.279,6.406 -16.315,6.373M-45.831,-17.538C-45.863,-17.566 -45.886,-17.606 -45.893,-17.65C-45.976,-18.158 -46.046,-18.675 -46.101,-19.186C-46.113,-19.292 -46.036,-19.387 -45.93,-19.398C-45.825,-19.409 -45.73,-19.332 -45.718,-19.227C-45.664,-18.723 -45.595,-18.214 -45.513,-17.713C-45.496,-17.608 -45.568,-17.508 -45.672,-17.492C-45.732,-17.482 -45.79,-17.501 -45.831,-17.538M-19.391,6.352C-19.434,6.314 -19.459,6.258 -19.455,6.197C-19.449,6.09 -19.357,6.01 -19.251,6.017C-18.752,6.046 -18.238,6.064 -17.724,6.067C-17.618,6.068 -17.532,6.155 -17.533,6.261C-17.534,6.367 -17.621,6.453 -17.727,6.452C-18.248,6.449 -18.769,6.431 -19.275,6.4C-19.32,6.398 -19.359,6.38 -19.391,6.352M-45.174,-14.53C-45.201,-14.554 -45.221,-14.585 -45.231,-14.622C-45.368,-15.119 -45.493,-15.625 -45.603,-16.127C-45.626,-16.231 -45.56,-16.333 -45.456,-16.356C-45.352,-16.379 -45.249,-16.312 -45.227,-16.209C-45.119,-15.714 -44.995,-15.214 -44.86,-14.724C-44.832,-14.622 -44.892,-14.516 -44.995,-14.488C-45.06,-14.47 -45.127,-14.488 -45.174,-14.53M-22.447,6.003C-22.495,5.961 -22.52,5.895 -22.509,5.827C-22.491,5.722 -22.392,5.652 -22.287,5.67C-21.792,5.754 -21.283,5.826 -20.775,5.885C-20.672,5.895 -20.593,5.992 -20.606,6.098C-20.618,6.203 -20.713,6.279 -20.819,6.266C-21.334,6.207 -21.85,6.135 -22.352,6.049C-22.388,6.043 -22.421,6.027 -22.447,6.003M-44.197,-11.608C-44.219,-11.627 -44.236,-11.652 -44.248,-11.681C-44.435,-12.154 -44.613,-12.645 -44.779,-13.138C-44.813,-13.239 -44.759,-13.347 -44.658,-13.381C-44.557,-13.416 -44.447,-13.363 -44.415,-13.26C-44.251,-12.774 -44.074,-12.29 -43.89,-11.823C-43.851,-11.724 -43.899,-11.612 -43.998,-11.572C-44.068,-11.544 -44.144,-11.561 -44.197,-11.608M-25.445,5.328C-25.498,5.281 -25.523,5.205 -25.502,5.132C-25.473,5.03 -25.367,4.97 -25.265,4.999C-24.773,5.138 -24.275,5.264 -23.785,5.374C-23.682,5.396 -23.617,5.501 -23.64,5.605C-23.663,5.708 -23.766,5.773 -23.87,5.75C-24.366,5.638 -24.87,5.511 -25.369,5.369C-25.398,5.362 -25.424,5.347 -25.445,5.328M-42.908,-8.808C-42.925,-8.823 -42.94,-8.841 -42.951,-8.862C-43.191,-9.318 -43.422,-9.786 -43.637,-10.254C-43.681,-10.35 -43.639,-10.465 -43.542,-10.51C-43.445,-10.553 -43.333,-10.512 -43.287,-10.415C-43.075,-9.953 -42.847,-9.492 -42.61,-9.041C-42.561,-8.947 -42.597,-8.831 -42.691,-8.781C-42.764,-8.743 -42.85,-8.756 -42.908,-8.808M-28.352,4.335C-28.411,4.282 -28.434,4.196 -28.402,4.119C-28.363,4.02 -28.251,3.973 -28.152,4.012C-27.684,4.202 -27.202,4.381 -26.723,4.546C-26.622,4.58 -26.568,4.689 -26.603,4.79C-26.637,4.89 -26.746,4.944 -26.847,4.91C-27.334,4.743 -27.822,4.561 -28.296,4.369C-28.317,4.361 -28.336,4.349 -28.352,4.335M-41.324,-6.165C-41.336,-6.176 -41.346,-6.188 -41.355,-6.201C-41.643,-6.628 -41.924,-7.067 -42.188,-7.508C-42.243,-7.599 -42.213,-7.716 -42.122,-7.771C-42.031,-7.827 -41.914,-7.797 -41.858,-7.706C-41.597,-7.271 -41.32,-6.838 -41.037,-6.417C-40.977,-6.329 -41,-6.209 -41.088,-6.15C-41.163,-6.099 -41.26,-6.108 -41.324,-6.165M-31.139,3.028C-31.204,2.97 -31.224,2.874 -31.18,2.793C-31.13,2.7 -31.014,2.665 -30.92,2.715C-30.475,2.954 -30.016,3.185 -29.554,3.402C-29.457,3.448 -29.416,3.562 -29.462,3.657C-29.507,3.754 -29.621,3.795 -29.717,3.75C-30.185,3.53 -30.652,3.296 -31.102,3.054C-31.116,3.047 -31.139,3.028 -31.139,3.028M-39.464,-3.713L-39.483,-3.733C-39.817,-4.127 -40.143,-4.534 -40.452,-4.943C-40.516,-5.027 -40.5,-5.148 -40.415,-5.212C-40.331,-5.277 -40.213,-5.263 -40.145,-5.175C-39.84,-4.772 -39.519,-4.37 -39.189,-3.981C-39.12,-3.9 -39.131,-3.779 -39.212,-3.71C-39.286,-3.647 -39.393,-3.65 -39.464,-3.713M-33.768,1.428C-33.839,1.365 -33.854,1.257 -33.798,1.175C-33.738,1.088 -33.619,1.065 -33.531,1.126C-33.114,1.411 -32.682,1.69 -32.246,1.955C-32.148,2.009 -32.127,2.129 -32.182,2.22C-32.238,2.311 -32.356,2.339 -32.447,2.284C-32.888,2.015 -33.326,1.733 -33.749,1.443L-33.768,1.428ZM-37.355,-1.478C-37.728,-1.834 -38.099,-2.206 -38.45,-2.578C-38.523,-2.656 -38.52,-2.777 -38.442,-2.85C-38.365,-2.924 -38.233,-2.919 -38.17,-2.843C-37.823,-2.475 -37.46,-2.11 -37.091,-1.758C-37.014,-1.685 -37.011,-1.563 -37.085,-1.486C-37.157,-1.411 -37.277,-1.409 -37.355,-1.478M-36.208,-0.444C-36.286,-0.513 -36.296,-0.634 -36.228,-0.714C-36.159,-0.795 -36.038,-0.804 -35.956,-0.735C-35.568,-0.403 -35.168,-0.079 -34.768,0.228C-34.661,0.281 -34.668,0.413 -34.732,0.498C-34.797,0.582 -34.918,0.598 -35.002,0.533C-35.407,0.222 -35.814,-0.107 -36.208,-0.444" style="fill:rgb(95,179,228);fill-rule:nonzero;"/>
                </g>
                <g transform="matrix(1,0,0,1,1445.5552,897.5031)">
                    <path d="M0,-23.916L-0.012,-23.928C-0.359,-24.295 -0.726,-24.652 -1.103,-24.987C-1.126,-25.008 -1.143,-25.033 -1.154,-25.06C-1.18,-25.126 -1.169,-25.204 -1.119,-25.26C-1.045,-25.344 -0.909,-25.36 -0.835,-25.264C-0.454,-24.924 -0.084,-24.564 0.268,-24.192C0.341,-24.115 0.338,-23.993 0.26,-23.92C0.187,-23.851 0.074,-23.85 0,-23.916M-3.568,-26.827C-3.637,-26.888 -3.654,-26.991 -3.604,-27.073C-3.548,-27.163 -3.429,-27.191 -3.339,-27.135C-2.899,-26.862 -2.466,-26.568 -2.053,-26.259C-1.97,-26.2 -1.95,-26.074 -2.014,-25.99C-2.078,-25.905 -2.198,-25.887 -2.284,-25.951C-2.688,-26.253 -3.111,-26.541 -3.542,-26.808L-3.568,-26.827ZM1.909,-21.506C1.897,-21.517 1.886,-21.529 1.877,-21.544C1.601,-21.963 1.301,-22.378 0.984,-22.777C0.918,-22.86 0.933,-22.981 1.016,-23.048C1.099,-23.114 1.221,-23.107 1.286,-23.016C1.61,-22.608 1.917,-22.184 2.198,-21.755C2.257,-21.666 2.232,-21.547 2.143,-21.489C2.068,-21.439 1.973,-21.449 1.909,-21.506M-6.315,-28.209C-6.374,-28.262 -6.396,-28.347 -6.366,-28.425C-6.327,-28.523 -6.214,-28.571 -6.115,-28.532C-5.639,-28.342 -5.161,-28.127 -4.696,-27.893C-4.602,-27.846 -4.562,-27.731 -4.611,-27.635C-4.658,-27.54 -4.774,-27.502 -4.869,-27.55C-5.324,-27.778 -5.791,-27.988 -6.258,-28.174C-6.279,-28.183 -6.299,-28.195 -6.315,-28.209M3.368,-18.798C3.348,-18.816 3.331,-18.839 3.32,-18.866C3.119,-19.333 2.896,-19.794 2.657,-20.237C2.607,-20.331 2.641,-20.448 2.734,-20.498C2.828,-20.548 2.944,-20.51 2.995,-20.42C3.24,-19.967 3.468,-19.495 3.673,-19.018C3.715,-18.921 3.67,-18.807 3.573,-18.765C3.502,-18.735 3.422,-18.75 3.368,-18.798M-9.26,-29.092C-9.309,-29.136 -9.334,-29.204 -9.32,-29.274C-9.299,-29.378 -9.197,-29.446 -9.093,-29.424C-8.584,-29.319 -8.076,-29.191 -7.584,-29.043C-7.483,-29.013 -7.425,-28.905 -7.455,-28.803C-7.486,-28.702 -7.593,-28.644 -7.695,-28.674C-8.176,-28.819 -8.672,-28.944 -9.171,-29.047C-9.205,-29.054 -9.235,-29.07 -9.26,-29.092M4.332,-15.877C4.304,-15.903 4.282,-15.937 4.273,-15.977C4.156,-16.472 4.016,-16.965 3.859,-17.442C3.826,-17.543 3.881,-17.652 3.981,-17.685C4.083,-17.72 4.192,-17.662 4.225,-17.563C4.385,-17.076 4.528,-16.572 4.648,-16.065C4.672,-15.962 4.608,-15.858 4.505,-15.834C4.441,-15.819 4.377,-15.837 4.332,-15.877M-12.314,-29.447C-12.355,-29.484 -12.38,-29.537 -12.379,-29.596C-12.376,-29.702 -12.287,-29.786 -12.181,-29.783C-11.665,-29.769 -11.143,-29.731 -10.629,-29.671C-10.524,-29.658 -10.447,-29.563 -10.46,-29.457C-10.472,-29.352 -10.567,-29.276 -10.673,-29.288C-11.176,-29.347 -11.687,-29.384 -12.192,-29.398C-12.239,-29.4 -12.282,-29.418 -12.314,-29.447M4.776,-12.832C4.739,-12.865 4.715,-12.912 4.712,-12.965C4.682,-13.47 4.63,-13.98 4.557,-14.481C4.542,-14.586 4.615,-14.683 4.72,-14.699C4.825,-14.713 4.924,-14.639 4.939,-14.536C5.013,-14.024 5.066,-13.504 5.096,-12.987C5.102,-12.881 5.021,-12.79 4.915,-12.784C4.862,-12.781 4.813,-12.799 4.776,-12.832M-15.385,-29.27C-15.417,-29.299 -15.44,-29.339 -15.447,-29.386C-15.462,-29.491 -15.39,-29.588 -15.284,-29.604C-14.78,-29.677 -14.258,-29.73 -13.735,-29.761C-13.63,-29.767 -13.538,-29.687 -13.532,-29.58C-13.526,-29.474 -13.607,-29.383 -13.713,-29.377C-14.224,-29.347 -14.735,-29.295 -15.229,-29.223C-15.288,-29.214 -15.344,-29.233 -15.385,-29.27M4.687,-9.758C4.642,-9.798 4.616,-9.86 4.624,-9.925C4.682,-10.427 4.719,-10.938 4.734,-11.443C4.736,-11.549 4.825,-11.633 4.931,-11.63C5.036,-11.628 5.122,-11.538 5.119,-11.432C5.104,-10.916 5.066,-10.394 5.006,-9.88C4.994,-9.774 4.899,-9.699 4.793,-9.711C4.752,-9.716 4.716,-9.733 4.687,-9.758M-18.379,-28.564C-18.403,-28.586 -18.422,-28.614 -18.433,-28.647C-18.467,-28.748 -18.411,-28.857 -18.311,-28.891C-17.82,-29.052 -17.317,-29.194 -16.813,-29.313C-16.708,-29.338 -16.605,-29.272 -16.581,-29.17C-16.556,-29.067 -16.621,-28.963 -16.724,-28.938C-17.218,-28.822 -17.711,-28.683 -18.19,-28.525C-18.258,-28.503 -18.329,-28.52 -18.379,-28.564M4.065,-6.747C4.011,-6.795 3.987,-6.872 4.009,-6.946C4.154,-7.43 4.279,-7.927 4.381,-8.423C4.402,-8.526 4.504,-8.594 4.609,-8.572C4.71,-8.551 4.779,-8.451 4.758,-8.345C4.654,-7.839 4.526,-7.33 4.378,-6.836C4.347,-6.734 4.24,-6.676 4.138,-6.707C4.11,-6.715 4.086,-6.729 4.065,-6.747M-21.204,-27.349C-21.22,-27.363 -21.234,-27.381 -21.245,-27.401C-21.295,-27.495 -21.261,-27.612 -21.168,-27.662C-20.714,-27.906 -20.243,-28.134 -19.766,-28.339C-19.668,-28.381 -19.555,-28.335 -19.513,-28.239C-19.471,-28.141 -19.516,-28.028 -19.613,-27.986C-20.08,-27.785 -20.542,-27.562 -20.984,-27.323C-21.057,-27.284 -21.145,-27.296 -21.204,-27.349M2.929,-3.89C2.866,-3.947 2.846,-4.042 2.886,-4.121C3.111,-4.568 3.321,-5.035 3.51,-5.51C3.549,-5.608 3.661,-5.656 3.761,-5.617C3.857,-5.577 3.907,-5.466 3.868,-5.367C3.675,-4.882 3.46,-4.405 3.229,-3.948C3.182,-3.852 3.066,-3.814 2.971,-3.862C2.956,-3.87 2.942,-3.879 2.929,-3.89M-23.773,-25.658L-23.796,-25.682C-23.862,-25.765 -23.848,-25.886 -23.765,-25.952C-23.356,-26.276 -22.932,-26.583 -22.504,-26.864C-22.415,-26.923 -22.292,-26.893 -22.237,-26.809C-22.178,-26.72 -22.203,-26.601 -22.292,-26.543C-22.711,-26.268 -23.126,-25.967 -23.526,-25.651C-23.6,-25.592 -23.705,-25.597 -23.773,-25.658M1.312,-1.277C1.238,-1.343 1.226,-1.456 1.286,-1.536C1.588,-1.94 1.876,-2.363 2.143,-2.794C2.198,-2.884 2.318,-2.912 2.408,-2.856C2.503,-2.804 2.526,-2.682 2.47,-2.591C2.198,-2.151 1.903,-1.718 1.595,-1.305C1.531,-1.22 1.41,-1.203 1.325,-1.266L1.312,-1.277ZM-26.01,-23.544C-26.09,-23.615 -26.099,-23.734 -26.029,-23.813C-25.686,-24.198 -25.316,-24.579 -24.94,-24.935C-24.864,-25.008 -24.744,-25.013 -24.668,-24.927C-24.595,-24.85 -24.598,-24.728 -24.676,-24.655C-25.044,-24.307 -25.401,-23.939 -25.736,-23.563C-25.807,-23.484 -25.931,-23.474 -26.01,-23.544M-0.733,1.02L-0.744,1.009C-0.818,0.931 -0.814,0.81 -0.737,0.737C-0.369,0.389 -0.013,0.023 0.321,-0.353C0.392,-0.432 0.515,-0.44 0.594,-0.37C0.673,-0.299 0.682,-0.179 0.611,-0.1C0.27,0.284 -0.097,0.661 -0.472,1.016C-0.545,1.086 -0.658,1.086 -0.733,1.02M-27.852,-21.077C-27.92,-21.138 -27.937,-21.241 -27.887,-21.322C-27.615,-21.762 -27.32,-22.195 -27.012,-22.608C-26.948,-22.693 -26.828,-22.71 -26.743,-22.647C-26.655,-22.573 -26.64,-22.461 -26.704,-22.377C-27.005,-21.973 -27.293,-21.55 -27.56,-21.119C-27.616,-21.029 -27.735,-21.001 -27.825,-21.057L-27.852,-21.077ZM-3.142,2.93C-3.155,2.919 -3.166,2.906 -3.175,2.892C-3.234,2.803 -3.209,2.683 -3.12,2.625C-2.701,2.35 -2.286,2.05 -1.886,1.733C-1.804,1.668 -1.682,1.677 -1.616,1.765C-1.55,1.848 -1.564,1.969 -1.647,2.035C-2.056,2.359 -2.48,2.666 -2.909,2.947C-2.983,2.996 -3.079,2.986 -3.142,2.93M-29.234,-18.33C-29.292,-18.382 -29.316,-18.468 -29.284,-18.545C-29.093,-19.027 -28.879,-19.505 -28.647,-19.965C-28.599,-20.06 -28.484,-20.098 -28.389,-20.05C-28.296,-20.001 -28.255,-19.886 -28.304,-19.792C-28.53,-19.342 -28.74,-18.875 -28.927,-18.403C-28.966,-18.304 -29.078,-18.256 -29.176,-18.295C-29.198,-18.304 -29.217,-18.316 -29.234,-18.33M-5.85,4.389C-5.87,4.371 -5.887,4.348 -5.898,4.322C-5.94,4.224 -5.896,4.11 -5.798,4.069C-5.331,3.867 -4.87,3.645 -4.427,3.406C-4.334,3.356 -4.215,3.393 -4.166,3.483C-4.116,3.577 -4.151,3.694 -4.244,3.744C-4.697,3.989 -5.168,4.216 -5.646,4.422C-5.716,4.453 -5.796,4.437 -5.85,4.389M-30.114,-15.385C-30.163,-15.429 -30.188,-15.498 -30.174,-15.568C-30.07,-16.074 -29.942,-16.583 -29.794,-17.077C-29.764,-17.179 -29.656,-17.236 -29.554,-17.206C-29.453,-17.176 -29.395,-17.069 -29.425,-16.966C-29.57,-16.483 -29.695,-15.986 -29.797,-15.49C-29.819,-15.386 -29.92,-15.319 -30.025,-15.34C-30.059,-15.348 -30.089,-15.363 -30.114,-15.385M-8.771,5.354C-8.8,5.328 -8.821,5.294 -8.831,5.254C-8.855,5.151 -8.791,5.047 -8.688,5.022C-8.192,4.906 -7.699,4.766 -7.222,4.608C-7.12,4.575 -7.012,4.63 -6.979,4.731C-6.946,4.832 -7.001,4.941 -7.101,4.974C-7.589,5.135 -8.092,5.278 -8.599,5.397C-8.662,5.412 -8.726,5.394 -8.771,5.354M-30.469,-12.331C-30.51,-12.367 -30.535,-12.421 -30.534,-12.48C-30.519,-12.996 -30.481,-13.518 -30.422,-14.032C-30.409,-14.138 -30.314,-14.213 -30.208,-14.201C-30.103,-14.189 -30.026,-14.094 -30.039,-13.987C-30.098,-13.485 -30.134,-12.974 -30.149,-12.469C-30.151,-12.363 -30.24,-12.279 -30.347,-12.282C-30.394,-12.283 -30.437,-12.302 -30.469,-12.331M-11.815,5.797C-11.851,5.765 -11.876,5.718 -11.879,5.665C-11.885,5.559 -11.804,5.468 -11.698,5.461C-11.191,5.432 -10.681,5.379 -10.182,5.307C-10.077,5.292 -9.979,5.366 -9.964,5.47C-9.949,5.575 -10.022,5.672 -10.127,5.688C-10.637,5.762 -11.157,5.815 -11.676,5.846C-11.729,5.849 -11.778,5.83 -11.815,5.797M-30.29,-9.259C-30.323,-9.288 -30.346,-9.329 -30.353,-9.375C-30.428,-9.89 -30.481,-10.411 -30.51,-10.923C-30.516,-11.03 -30.435,-11.121 -30.329,-11.127C-30.223,-11.133 -30.132,-11.052 -30.126,-10.946C-30.097,-10.445 -30.045,-9.935 -29.971,-9.43C-29.956,-9.325 -30.029,-9.228 -30.135,-9.212C-30.193,-9.204 -30.249,-9.223 -30.29,-9.259M-14.889,5.708C-14.934,5.668 -14.959,5.606 -14.952,5.541C-14.939,5.436 -14.844,5.361 -14.738,5.373C-14.236,5.431 -13.724,5.468 -13.22,5.482C-13.114,5.485 -13.029,5.574 -13.033,5.68C-13.036,5.786 -13.124,5.87 -13.23,5.867C-13.746,5.853 -14.268,5.815 -14.783,5.755C-14.824,5.75 -14.86,5.733 -14.889,5.708M-29.584,-6.267C-29.609,-6.289 -29.628,-6.317 -29.639,-6.35C-29.799,-6.836 -29.942,-7.34 -30.062,-7.848C-30.087,-7.952 -30.023,-8.055 -29.919,-8.08C-29.816,-8.104 -29.713,-8.04 -29.687,-7.937C-29.57,-7.439 -29.43,-6.947 -29.273,-6.471C-29.24,-6.37 -29.295,-6.261 -29.395,-6.228C-29.463,-6.206 -29.535,-6.223 -29.584,-6.267M-17.901,5.088C-17.955,5.04 -17.979,4.963 -17.957,4.889C-17.927,4.787 -17.819,4.729 -17.718,4.76C-17.234,4.904 -16.738,5.03 -16.241,5.131C-16.14,5.152 -16.071,5.253 -16.092,5.359C-16.113,5.463 -16.215,5.53 -16.319,5.509C-16.826,5.404 -17.334,5.277 -17.828,5.128C-17.856,5.12 -17.881,5.106 -17.901,5.088M-28.367,-3.44C-28.383,-3.454 -28.398,-3.472 -28.408,-3.492C-28.653,-3.945 -28.88,-4.417 -29.086,-4.894C-29.128,-4.992 -29.083,-5.105 -28.986,-5.147C-28.888,-5.189 -28.775,-5.141 -28.733,-5.046C-28.531,-4.579 -28.309,-4.118 -28.07,-3.675C-28.02,-3.581 -28.054,-3.464 -28.147,-3.414C-28.221,-3.375 -28.308,-3.387 -28.367,-3.44M-20.757,3.952C-20.821,3.896 -20.841,3.801 -20.801,3.722C-20.753,3.627 -20.638,3.589 -20.543,3.637C-20.093,3.863 -19.626,4.073 -19.154,4.261C-19.055,4.297 -19.006,4.412 -19.046,4.51C-19.085,4.609 -19.197,4.658 -19.295,4.618C-19.778,4.427 -20.257,4.212 -20.716,3.98C-20.731,3.973 -20.745,3.963 -20.757,3.952M-26.676,-0.873L-26.699,-0.897C-27.023,-1.305 -27.33,-1.73 -27.611,-2.158C-27.67,-2.247 -27.645,-2.366 -27.556,-2.424C-27.467,-2.483 -27.347,-2.453 -27.29,-2.369C-27.015,-1.95 -26.714,-1.536 -26.398,-1.136C-26.332,-1.053 -26.346,-0.932 -26.429,-0.866C-26.503,-0.807 -26.608,-0.812 -26.676,-0.873M-23.372,2.335C-23.446,2.269 -23.459,2.157 -23.398,2.076C-23.334,1.991 -23.214,1.974 -23.129,2.037C-22.725,2.339 -22.302,2.627 -21.871,2.894C-21.775,2.95 -21.753,3.068 -21.809,3.159C-21.864,3.249 -21.984,3.277 -22.074,3.221C-22.514,2.949 -22.946,2.654 -23.359,2.346L-23.372,2.335ZM-24.565,1.363L-24.577,1.351C-24.961,1.008 -25.333,0.647 -25.68,0.279C-25.754,0.202 -25.75,0.08 -25.673,0.007C-25.596,-0.065 -25.47,-0.066 -25.401,0.015C-25.057,0.378 -24.691,0.733 -24.312,1.071L-24.291,1.093C-24.229,1.165 -24.228,1.274 -24.293,1.347C-24.364,1.426 -24.486,1.433 -24.565,1.363" style="fill:rgb(95,179,228);fill-rule:nonzero;"/>
                </g>
                <g transform="matrix(1,0,0,1,1436.8842,901.1162)">
                    <path d="M0,-18.097C-0.07,-18.159 -0.086,-18.264 -0.034,-18.345C0.023,-18.434 0.142,-18.46 0.232,-18.403C0.667,-18.124 1.09,-17.809 1.488,-17.466C1.566,-17.397 1.576,-17.275 1.507,-17.196C1.438,-17.115 1.316,-17.106 1.236,-17.176C0.852,-17.506 0.444,-17.81 0.024,-18.079L0,-18.097ZM3.258,-14.871C3.245,-14.882 3.234,-14.895 3.225,-14.91C2.951,-15.33 2.642,-15.734 2.311,-16.113C2.24,-16.192 2.248,-16.314 2.328,-16.384C2.408,-16.455 2.53,-16.449 2.599,-16.367C2.944,-15.975 3.262,-15.556 3.547,-15.12C3.605,-15.031 3.58,-14.911 3.491,-14.854C3.417,-14.805 3.321,-14.814 3.258,-14.871M-2.792,-19.37C-2.846,-19.418 -2.87,-19.495 -2.848,-19.568C-2.819,-19.67 -2.711,-19.729 -2.61,-19.698C-2.111,-19.552 -1.618,-19.369 -1.143,-19.152C-1.047,-19.101 -1.004,-18.992 -1.047,-18.897C-1.092,-18.8 -1.206,-18.757 -1.302,-18.801C-1.761,-19.011 -2.237,-19.188 -2.718,-19.33C-2.746,-19.338 -2.771,-19.352 -2.792,-19.37M4.557,-12.09C4.531,-12.113 4.511,-12.143 4.5,-12.177C4.353,-12.662 4.171,-13.136 3.96,-13.589C3.915,-13.686 3.956,-13.8 4.053,-13.845C4.15,-13.89 4.262,-13.851 4.308,-13.752C4.527,-13.283 4.716,-12.791 4.869,-12.29C4.9,-12.188 4.843,-12.081 4.741,-12.049C4.674,-12.03 4.605,-12.047 4.557,-12.09M-5.827,-19.812C-5.867,-19.848 -5.892,-19.899 -5.891,-19.957C-5.891,-20.063 -5.804,-20.149 -5.698,-20.148C-5.178,-20.146 -4.653,-20.107 -4.137,-20.033C-4.034,-20.017 -3.959,-19.921 -3.974,-19.814C-3.99,-19.709 -4.088,-19.636 -4.193,-19.652C-4.691,-19.723 -5.198,-19.761 -5.7,-19.764C-5.749,-19.763 -5.793,-19.782 -5.827,-19.812M5.027,-9.056C4.988,-9.09 4.963,-9.141 4.963,-9.197C4.956,-9.699 4.914,-10.205 4.837,-10.703C4.82,-10.808 4.893,-10.906 4.998,-10.923C5.102,-10.938 5.2,-10.867 5.218,-10.762C5.297,-10.246 5.341,-9.722 5.348,-9.202C5.349,-9.096 5.264,-9.008 5.158,-9.007C5.107,-9.007 5.062,-9.025 5.027,-9.056M-8.869,-19.394C-8.895,-19.418 -8.916,-19.449 -8.926,-19.485C-8.955,-19.588 -8.896,-19.694 -8.794,-19.723C-8.295,-19.865 -7.78,-19.973 -7.262,-20.045C-7.156,-20.058 -7.06,-19.984 -7.045,-19.881C-7.03,-19.775 -7.103,-19.678 -7.209,-19.664C-7.71,-19.594 -8.207,-19.489 -8.688,-19.353C-8.754,-19.334 -8.822,-19.352 -8.869,-19.394M4.64,-6.013C4.587,-6.06 4.562,-6.134 4.582,-6.207C4.714,-6.69 4.814,-7.188 4.878,-7.688C4.892,-7.794 4.988,-7.868 5.093,-7.855C5.2,-7.841 5.274,-7.744 5.26,-7.64C5.194,-7.122 5.09,-6.606 4.953,-6.106C4.925,-6.003 4.819,-5.942 4.717,-5.971C4.687,-5.979 4.661,-5.994 4.64,-6.013M-11.673,-18.145C-11.686,-18.156 -11.698,-18.17 -11.708,-18.186C-11.765,-18.276 -11.738,-18.395 -11.648,-18.452C-11.208,-18.728 -10.744,-18.976 -10.266,-19.189C-10.169,-19.234 -10.052,-19.192 -10.012,-19.092C-9.969,-18.995 -10.012,-18.882 -10.109,-18.838C-10.57,-18.633 -11.019,-18.393 -11.443,-18.126C-11.517,-18.079 -11.611,-18.089 -11.673,-18.145M3.415,-3.2C3.347,-3.261 3.33,-3.364 3.379,-3.445C3.643,-3.873 3.879,-4.323 4.079,-4.783C4.122,-4.881 4.235,-4.925 4.332,-4.883C4.434,-4.838 4.475,-4.726 4.432,-4.63C4.225,-4.153 3.98,-3.686 3.707,-3.243C3.651,-3.152 3.533,-3.124 3.443,-3.18L3.415,-3.2ZM-14.5,-15.566C-14.575,-15.633 -14.592,-15.751 -14.529,-15.832C-14.371,-16.036 -14.205,-16.236 -14.03,-16.433C-13.683,-16.822 -13.306,-17.19 -12.909,-17.526C-12.828,-17.595 -12.707,-17.588 -12.638,-17.503C-12.569,-17.423 -12.58,-17.301 -12.661,-17.233C-13.044,-16.908 -13.408,-16.552 -13.743,-16.177C-13.911,-15.987 -14.072,-15.793 -14.226,-15.596C-14.29,-15.512 -14.417,-15.501 -14.5,-15.566M1.455,-0.838L1.44,-0.852C1.369,-0.931 1.375,-1.053 1.453,-1.124C1.73,-1.374 1.999,-1.646 2.252,-1.93C2.336,-2.025 2.418,-2.12 2.498,-2.216C2.565,-2.298 2.687,-2.309 2.769,-2.241C2.863,-2.155 2.862,-2.052 2.794,-1.97C2.711,-1.871 2.627,-1.772 2.54,-1.674C2.277,-1.379 1.998,-1.098 1.713,-0.839C1.638,-0.772 1.528,-0.773 1.455,-0.838M-16.022,-12.902C-16.08,-12.954 -16.103,-13.039 -16.073,-13.116C-15.882,-13.603 -15.654,-14.078 -15.397,-14.529C-15.345,-14.621 -15.227,-14.653 -15.135,-14.6C-15.039,-14.547 -15.009,-14.43 -15.063,-14.338C-15.311,-13.904 -15.53,-13.445 -15.714,-12.976C-15.753,-12.877 -15.865,-12.828 -15.964,-12.867C-15.986,-12.876 -16.005,-12.888 -16.022,-12.902M-1.083,0.888C-1.102,0.872 -1.117,0.852 -1.129,0.828C-1.175,0.733 -1.135,0.618 -1.04,0.571C-0.589,0.35 -0.148,0.095 0.268,-0.187C0.356,-0.247 0.478,-0.228 0.535,-0.137C0.595,-0.049 0.572,0.071 0.484,0.13C0.053,0.423 -0.403,0.687 -0.871,0.917C-0.943,0.952 -1.027,0.938 -1.083,0.888M-16.73,-9.918C-16.773,-9.957 -16.799,-10.016 -16.793,-10.079C-16.746,-10.596 -16.661,-11.114 -16.541,-11.622C-16.516,-11.726 -16.412,-11.79 -16.309,-11.766C-16.206,-11.741 -16.141,-11.637 -16.166,-11.534C-16.282,-11.043 -16.364,-10.542 -16.41,-10.044C-16.42,-9.938 -16.513,-9.86 -16.619,-9.87C-16.662,-9.874 -16.7,-9.891 -16.73,-9.918M-4.005,1.832C-4.036,1.804 -4.059,1.766 -4.066,1.721C-4.085,1.616 -4.014,1.517 -3.91,1.499C-3.414,1.413 -2.92,1.291 -2.443,1.136C-2.341,1.102 -2.232,1.159 -2.2,1.26C-2.168,1.361 -2.223,1.469 -2.324,1.502C-2.819,1.663 -3.331,1.789 -3.844,1.878C-3.904,1.888 -3.963,1.869 -4.005,1.832M-16.581,-6.853C-16.612,-6.88 -16.633,-6.917 -16.642,-6.961C-16.739,-7.472 -16.802,-7.994 -16.828,-8.514C-16.833,-8.62 -16.751,-8.71 -16.645,-8.716C-16.539,-8.721 -16.449,-8.64 -16.442,-8.533C-16.418,-8.031 -16.358,-7.526 -16.264,-7.033C-16.244,-6.928 -16.312,-6.827 -16.417,-6.807C-16.478,-6.795 -16.537,-6.814 -16.581,-6.853M-7.071,1.927C-7.116,1.887 -7.142,1.827 -7.135,1.762C-7.123,1.656 -7.028,1.58 -6.922,1.592C-6.425,1.647 -5.918,1.667 -5.413,1.651C-5.308,1.647 -5.218,1.732 -5.215,1.838C-5.212,1.944 -5.295,2.033 -5.401,2.036C-5.924,2.052 -6.45,2.032 -6.965,1.975C-7.006,1.97 -7.043,1.953 -7.071,1.927M-15.585,-3.949C-15.602,-3.964 -15.616,-3.983 -15.628,-4.005C-15.865,-4.468 -16.07,-4.953 -16.24,-5.447C-16.275,-5.547 -16.221,-5.656 -16.12,-5.691C-16.019,-5.726 -15.911,-5.672 -15.875,-5.571C-15.712,-5.095 -15.514,-4.628 -15.285,-4.18C-15.237,-4.085 -15.274,-3.969 -15.369,-3.921C-15.442,-3.884 -15.527,-3.898 -15.585,-3.949M-10.044,1.167C-10.104,1.113 -10.126,1.027 -10.094,0.949C-10.053,0.851 -9.941,0.804 -9.842,0.845C-9.38,1.037 -8.898,1.198 -8.41,1.322C-8.306,1.348 -8.245,1.452 -8.27,1.556C-8.297,1.659 -8.401,1.721 -8.504,1.695C-9.011,1.566 -9.511,1.4 -9.99,1.201C-10.01,1.192 -10.028,1.181 -10.044,1.167M-13.816,-1.44L-13.828,-1.451C-14.187,-1.833 -14.521,-2.241 -14.818,-2.664C-14.88,-2.751 -14.859,-2.871 -14.772,-2.932C-14.686,-2.992 -14.561,-2.969 -14.504,-2.886C-14.217,-2.477 -13.895,-2.083 -13.548,-1.716C-13.475,-1.638 -13.478,-1.517 -13.556,-1.444C-13.629,-1.374 -13.742,-1.374 -13.816,-1.44M-12.682,-0.393C-12.757,-0.461 -12.772,-0.58 -12.708,-0.661C-12.642,-0.743 -12.521,-0.757 -12.437,-0.691C-12.042,-0.375 -11.624,-0.085 -11.195,0.169C-11.098,0.221 -11.073,0.341 -11.127,0.432C-11.182,0.524 -11.299,0.554 -11.391,0.5C-11.836,0.236 -12.272,-0.067 -12.682,-0.393" style="fill:rgb(95,179,228);fill-rule:nonzero;"/>
                </g>
                <g transform="matrix(1,0,0,1,1438.5608,897.4798)">
                    <path d="M0,-11.336C-0.067,-11.396 -0.085,-11.496 -0.038,-11.577C0.015,-11.669 0.133,-11.699 0.225,-11.646C0.678,-11.381 1.113,-11.061 1.491,-10.699C1.567,-10.626 1.57,-10.503 1.497,-10.427C1.424,-10.35 1.297,-10.362 1.225,-10.42C0.866,-10.766 0.458,-11.064 0.031,-11.313L0,-11.336ZM2.92,-7.874C2.897,-7.895 2.88,-7.92 2.868,-7.951C2.694,-8.417 2.465,-8.865 2.189,-9.279C2.13,-9.368 2.155,-9.487 2.243,-9.547C2.332,-9.606 2.447,-9.581 2.51,-9.493C2.802,-9.053 3.044,-8.58 3.228,-8.085C3.266,-7.985 3.214,-7.875 3.115,-7.838C3.046,-7.812 2.972,-7.828 2.92,-7.874M-2.916,-12.236C-2.959,-12.274 -2.985,-12.331 -2.98,-12.393C-2.973,-12.499 -2.881,-12.579 -2.774,-12.572C-2.249,-12.534 -1.726,-12.437 -1.222,-12.283C-1.121,-12.253 -1.063,-12.144 -1.094,-12.042C-1.126,-11.94 -1.234,-11.883 -1.335,-11.914C-1.811,-12.06 -2.305,-12.152 -2.802,-12.188C-2.846,-12.19 -2.885,-12.208 -2.916,-12.236M3.312,-4.846C3.268,-4.886 3.243,-4.946 3.249,-5.009C3.298,-5.505 3.291,-6.007 3.226,-6.502C3.213,-6.607 3.287,-6.703 3.392,-6.718C3.499,-6.73 3.594,-6.657 3.608,-6.551C3.676,-6.028 3.684,-5.496 3.632,-4.971C3.621,-4.865 3.527,-4.788 3.422,-4.798C3.379,-4.803 3.341,-4.82 3.312,-4.846M-5.931,-11.756C-5.953,-11.775 -5.97,-11.799 -5.982,-11.827C-6.021,-11.926 -5.974,-12.038 -5.876,-12.079C-5.387,-12.277 -4.876,-12.419 -4.353,-12.502C-4.248,-12.518 -4.149,-12.447 -4.133,-12.342C-4.116,-12.236 -4.188,-12.138 -4.293,-12.122C-4.786,-12.044 -5.27,-11.909 -5.73,-11.722C-5.801,-11.693 -5.878,-11.709 -5.931,-11.756M2.333,-1.957C2.264,-2.019 2.247,-2.122 2.298,-2.202C2.561,-2.626 2.776,-3.081 2.936,-3.552C2.97,-3.652 3.079,-3.706 3.18,-3.672C3.284,-3.637 3.334,-3.528 3.301,-3.428C3.131,-2.929 2.903,-2.448 2.625,-2C2.568,-1.909 2.45,-1.882 2.36,-1.938L2.333,-1.957ZM-8.424,-9.995C-8.503,-10.066 -8.51,-10.188 -8.44,-10.267C-8.089,-10.661 -7.693,-11.015 -7.264,-11.32C-7.177,-11.381 -7.051,-11.359 -6.996,-11.275C-6.934,-11.188 -6.954,-11.068 -7.041,-11.007C-7.447,-10.719 -7.82,-10.384 -8.152,-10.011C-8.223,-9.932 -8.345,-9.925 -8.424,-9.995M0.176,0.204C0.163,0.192 0.151,0.179 0.141,0.163C0.085,0.073 0.112,-0.046 0.202,-0.103C0.623,-0.367 1.016,-0.68 1.368,-1.033C1.444,-1.109 1.558,-1.118 1.641,-1.034C1.717,-0.959 1.717,-0.837 1.642,-0.762C1.268,-0.388 0.853,-0.056 0.406,0.224C0.332,0.27 0.238,0.26 0.176,0.204M-9.641,-8.04C-9.7,-8.092 -9.723,-8.178 -9.692,-8.256C-9.495,-8.743 -9.24,-9.21 -8.935,-9.643C-8.874,-9.73 -8.755,-9.751 -8.667,-9.689C-8.575,-9.626 -8.561,-9.509 -8.621,-9.422C-8.909,-9.012 -9.149,-8.572 -9.335,-8.111C-9.375,-8.012 -9.487,-7.965 -9.586,-8.005C-9.606,-8.013 -9.625,-8.025 -9.641,-8.04M-2.712,1.19C-2.746,1.159 -2.77,1.116 -2.775,1.066C-2.786,0.96 -2.709,0.865 -2.603,0.855C-2.106,0.805 -1.616,0.698 -1.145,0.537C-1.045,0.501 -0.935,0.556 -0.901,0.657C-0.867,0.758 -0.921,0.867 -1.021,0.902C-1.519,1.071 -2.038,1.185 -2.564,1.238C-2.62,1.243 -2.673,1.224 -2.712,1.19M-10.113,-5.024C-10.149,-5.056 -10.173,-5.102 -10.177,-5.153C-10.214,-5.68 -10.193,-6.211 -10.112,-6.732C-10.095,-6.837 -9.997,-6.909 -9.892,-6.892C-9.786,-6.876 -9.714,-6.777 -9.731,-6.673C-9.808,-6.18 -9.829,-5.679 -9.793,-5.182C-9.785,-5.075 -9.865,-4.983 -9.97,-4.975C-10.025,-4.972 -10.075,-4.99 -10.113,-5.024M-5.74,0.804C-5.798,0.753 -5.821,0.67 -5.793,0.593C-5.756,0.494 -5.645,0.443 -5.545,0.48C-5.079,0.653 -4.592,0.773 -4.097,0.835C-3.991,0.85 -3.917,0.946 -3.93,1.051C-3.943,1.156 -4.04,1.23 -4.145,1.217C-4.669,1.151 -5.185,1.025 -5.679,0.841C-5.703,0.832 -5.723,0.82 -5.74,0.804M-9.208,-2.108C-9.223,-2.121 -9.236,-2.136 -9.247,-2.154C-9.513,-2.609 -9.728,-3.095 -9.884,-3.6C-9.915,-3.702 -9.859,-3.81 -9.757,-3.841C-9.655,-3.872 -9.547,-3.812 -9.517,-3.714C-9.369,-3.237 -9.166,-2.778 -8.914,-2.349C-8.861,-2.257 -8.891,-2.139 -8.983,-2.085C-9.057,-2.042 -9.148,-2.054 -9.208,-2.108M-7.874,-0.482C-8.022,-0.614 -8.163,-0.75 -8.296,-0.891C-8.369,-0.969 -8.366,-1.091 -8.29,-1.163C-8.213,-1.237 -8.084,-1.225 -8.018,-1.157C-7.679,-0.801 -7.289,-0.471 -6.875,-0.196C-6.787,-0.145 -6.763,-0.019 -6.821,0.07C-6.88,0.159 -6.999,0.183 -7.087,0.124C-7.362,-0.057 -7.627,-0.262 -7.874,-0.482" style="fill:rgb(95,179,228);fill-rule:nonzero;"/>
                </g>
                <g transform="matrix(1,0,0,1,1437.7499,891.5107)">
                    <path d="M0,-4.175C-0.013,-4.187 -0.025,-4.2 -0.034,-4.216C-0.295,-4.626 -0.641,-4.992 -1.032,-5.282C-1.127,-5.353 -1.135,-5.467 -1.072,-5.552C-1.009,-5.637 -0.888,-5.655 -0.802,-5.592C-0.377,-5.276 0.003,-4.873 0.29,-4.422C0.348,-4.333 0.321,-4.213 0.231,-4.156C0.157,-4.109 0.063,-4.119 0,-4.175M-3.948,-6.083C-3.983,-6.114 -4.006,-6.157 -4.012,-6.208C-4.023,-6.313 -3.946,-6.407 -3.84,-6.419C-3.301,-6.475 -2.764,-6.432 -2.244,-6.29C-2.144,-6.26 -2.08,-6.157 -2.109,-6.054C-2.136,-5.952 -2.242,-5.891 -2.345,-5.919C-2.819,-6.048 -3.309,-6.087 -3.801,-6.036C-3.856,-6.03 -3.909,-6.049 -3.948,-6.083M0.585,-1.221C0.537,-1.264 0.512,-1.33 0.524,-1.398C0.608,-1.884 0.602,-2.376 0.507,-2.86C0.486,-2.963 0.555,-3.065 0.659,-3.086C0.763,-3.106 0.863,-3.038 0.885,-2.934C0.99,-2.404 0.996,-1.865 0.902,-1.332C0.885,-1.227 0.785,-1.157 0.68,-1.175C0.643,-1.181 0.611,-1.198 0.585,-1.221M-0.971,1.353L-0.995,1.328C-1.06,1.244 -1.045,1.122 -0.961,1.057C-0.768,0.909 -0.588,0.74 -0.423,0.555C-0.261,0.373 -0.115,0.175 0.01,-0.032C0.066,-0.123 0.184,-0.152 0.275,-0.098C0.371,-0.042 0.395,0.076 0.34,0.167C0.202,0.395 0.042,0.611 -0.136,0.811C-0.316,1.014 -0.514,1.199 -0.725,1.362C-0.799,1.42 -0.903,1.414 -0.971,1.353M-7.417,-3.406C-7.474,-3.457 -7.498,-3.541 -7.469,-3.618C-7.28,-4.118 -7.003,-4.579 -6.642,-4.984C-6.281,-5.39 -5.855,-5.72 -5.376,-5.965C-5.281,-6.014 -5.169,-5.977 -5.116,-5.881C-5.069,-5.787 -5.106,-5.67 -5.2,-5.622C-5.637,-5.398 -6.025,-5.098 -6.355,-4.728C-6.683,-4.358 -6.937,-3.939 -7.108,-3.482C-7.146,-3.382 -7.257,-3.332 -7.356,-3.37C-7.379,-3.378 -7.399,-3.39 -7.417,-3.406M-3.858,2.208C-3.901,2.169 -3.927,2.111 -3.921,2.049C-3.913,1.942 -3.82,1.864 -3.714,1.873C-3.223,1.912 -2.734,1.862 -2.26,1.722C-2.159,1.692 -2.049,1.749 -2.022,1.852C-1.991,1.954 -2.049,2.061 -2.152,2.091C-2.671,2.244 -3.207,2.3 -3.745,2.256C-3.788,2.252 -3.827,2.235 -3.858,2.208M-7.385,-0.396C-7.407,-0.416 -7.424,-0.44 -7.436,-0.469C-7.635,-0.97 -7.74,-1.499 -7.745,-2.04C-7.746,-2.146 -7.661,-2.233 -7.555,-2.234C-7.449,-2.235 -7.361,-2.15 -7.361,-2.044C-7.355,-1.551 -7.26,-1.068 -7.078,-0.611C-7.038,-0.512 -7.087,-0.401 -7.186,-0.361C-7.255,-0.333 -7.332,-0.349 -7.385,-0.396M-6.287,1.168C-6.389,1.077 -6.486,0.982 -6.578,0.883C-6.651,0.806 -6.646,0.684 -6.568,0.611C-6.489,0.539 -6.366,0.537 -6.296,0.621C-5.964,0.976 -5.561,1.276 -5.122,1.489C-5.022,1.54 -4.986,1.651 -5.033,1.746C-5.079,1.842 -5.194,1.882 -5.289,1.836C-5.649,1.661 -5.985,1.437 -6.287,1.168" style="fill:rgb(95,179,228);fill-rule:nonzero;"/>
                </g>
                <g transform="matrix(1,0,0,1,1397.0587,872.577)">
                    <path d="M0,65.148C-1.82,63.527 -3.524,61.756 -5.093,59.841C-5.399,59.469 -5.344,58.918 -4.972,58.613C-4.599,58.307 -4.051,58.352 -3.743,58.735C4.657,68.974 17.069,75.003 30.31,75.272C43.572,75.543 56.233,70.023 65.046,60.128C74.268,49.775 78.177,35.858 75.77,21.947C73.674,9.829 66.948,-0.666 58.224,-5.436C47.569,-11.264 36.452,-8.596 29.599,-4.157C22.563,0.402 18.53,7.476 19.075,14.303C19.639,21.372 24.62,27.346 31.475,29.171C37.107,30.693 41.186,27.384 42.968,24.089C44.849,20.611 44.524,16.99 42.138,14.866C39.593,12.598 36.118,13.228 34.844,14.658C33.347,16.34 33.911,18.192 35.134,19.281C36.358,20.371 38.262,20.718 39.76,19.036C40.08,18.677 40.632,18.645 40.992,18.965C41.352,19.286 41.384,19.838 41.064,20.198C38.878,22.651 35.842,22.25 33.973,20.585C32.999,19.718 32.382,18.573 32.236,17.363C32.069,15.979 32.52,14.643 33.541,13.497C35.564,11.226 40.167,10.771 43.3,13.562C46.266,16.204 46.749,20.768 44.503,24.92C42.253,29.081 37.212,32.53 31.023,30.857C23.457,28.844 17.957,22.245 17.334,14.442C16.738,6.974 21.075,-0.714 28.65,-5.622C37.932,-11.636 49.584,-12.152 59.062,-6.967C68.245,-1.947 75.306,9.02 77.491,21.65C79.989,36.088 75.928,50.536 66.35,61.29C57.197,71.566 44.047,77.3 30.274,77.019C18.996,76.789 8.295,72.537 0,65.148" style="fill:rgb(95,179,228);fill-rule:nonzero;"/>
                </g>
            </g>
        </g>
    </g>
</svg>
