<?xml version="1.0" encoding="UTF-8" standalone="no"?>
<!DOCTYPE svg PUBLIC "-//W3C//DTD SVG 1.1//EN" "http://www.w3.org/Graphics/SVG/1.1/DTD/svg11.dtd">
<svg width="100%" height="100%" viewBox="0 0 117 117" version="1.1" xmlns="http://www.w3.org/2000/svg" xmlns:xlink="http://www.w3.org/1999/xlink" xml:space="preserve" xmlns:serif="http://www.serif.com/" style="fill-rule:evenodd;clip-rule:evenodd;stroke-linejoin:round;stroke-miterlimit:2;">
    <g transform="matrix(1,0,0,1,-592.972837,-1140.579046)">
        <g transform="matrix(1.333333,0,0,1.333333,0,0)">
            <g id="Pink-Spiral" serif:id="Pink Spiral">
                <g transform="matrix(1,0,0,1,516.6184,930.8115)">
                    <path d="M0,-63.85C-17.604,-79.53 -44.682,-77.965 -60.362,-60.361C-76.042,-42.757 -74.476,-15.68 -56.872,0C-39.269,15.68 -12.191,14.115 3.489,-3.489C19.169,-21.093 17.603,-48.171 0,-63.85M-57.35,0.537C-75.25,-15.407 -76.842,-42.94 -60.899,-60.839C-44.956,-78.739 -17.422,-80.33 0.478,-64.387C18.378,-48.444 19.969,-20.91 4.025,-3.011C-11.918,14.889 -39.451,16.48 -57.35,0.537" style="fill:rgb(237,74,149);fill-rule:nonzero;"/>
                </g>
                <g transform="matrix(1,0,0,1,517.3846,909.3377)">
                    <path d="M0,-41.598C-0.071,-41.661 -0.084,-41.772 -0.026,-41.847C0.036,-41.925 0.149,-41.938 0.227,-41.877C0.602,-41.582 0.976,-41.27 1.339,-40.951C1.413,-40.885 1.421,-40.773 1.355,-40.698C1.29,-40.623 1.176,-40.616 1.102,-40.682C0.743,-40.996 0.37,-41.307 0,-41.598M3.154,-38.673L3.141,-38.685C2.822,-39.032 2.489,-39.378 2.148,-39.71C2.077,-39.78 2.076,-39.894 2.145,-39.965C2.214,-40.035 2.333,-40.028 2.399,-39.968C2.745,-39.63 3.083,-39.28 3.407,-38.928C3.473,-38.856 3.469,-38.742 3.395,-38.674C3.326,-38.612 3.222,-38.612 3.154,-38.673M-2.351,-43.257C-2.416,-43.315 -2.431,-43.411 -2.384,-43.486C-2.331,-43.571 -2.22,-43.596 -2.137,-43.543C-1.725,-43.285 -1.32,-43.015 -0.932,-42.742C-0.843,-42.682 -0.833,-42.572 -0.889,-42.491C-0.947,-42.41 -1.058,-42.391 -1.139,-42.448C-1.522,-42.718 -1.921,-42.984 -2.327,-43.239L-2.351,-43.257ZM4.981,-36.456L4.956,-36.484C4.676,-36.865 4.38,-37.243 4.079,-37.61C4.016,-37.686 4.027,-37.8 4.103,-37.863C4.18,-37.926 4.296,-37.913 4.356,-37.838C4.662,-37.467 4.961,-37.083 5.245,-36.697C5.304,-36.617 5.287,-36.504 5.207,-36.446C5.138,-36.395 5.044,-36.401 4.981,-36.456M-4.865,-44.65C-4.923,-44.702 -4.942,-44.788 -4.907,-44.862C-4.864,-44.951 -4.756,-44.989 -4.667,-44.945C-4.238,-44.737 -3.806,-44.513 -3.382,-44.279C-3.295,-44.23 -3.264,-44.121 -3.313,-44.034C-3.36,-43.948 -3.47,-43.916 -3.557,-43.964C-3.975,-44.195 -4.401,-44.417 -4.823,-44.622C-4.839,-44.63 -4.852,-44.639 -4.865,-44.65M6.558,-34.055C6.544,-34.068 6.532,-34.082 6.523,-34.099C6.282,-34.511 6.029,-34.919 5.771,-35.314C5.717,-35.396 5.74,-35.508 5.823,-35.562C5.906,-35.616 6.016,-35.593 6.072,-35.51C6.333,-35.111 6.589,-34.698 6.832,-34.28C6.883,-34.195 6.854,-34.084 6.768,-34.035C6.699,-33.994 6.615,-34.005 6.558,-34.055M-7.513,-45.761C-7.566,-45.808 -7.588,-45.885 -7.563,-45.956C-7.529,-46.049 -7.427,-46.098 -7.333,-46.065C-6.878,-45.902 -6.425,-45.726 -5.985,-45.541C-5.895,-45.508 -5.85,-45.397 -5.889,-45.306C-5.927,-45.215 -6.032,-45.172 -6.124,-45.21C-6.558,-45.392 -7.006,-45.566 -7.454,-45.726C-7.477,-45.735 -7.496,-45.746 -7.513,-45.761M7.867,-31.493C7.849,-31.509 7.833,-31.529 7.822,-31.554C7.63,-31.987 7.423,-32.42 7.207,-32.844C7.162,-32.933 7.197,-33.041 7.285,-33.086C7.374,-33.13 7.481,-33.095 7.527,-33.008C7.746,-32.578 7.956,-32.138 8.151,-31.699C8.191,-31.609 8.15,-31.503 8.059,-31.462C7.993,-31.433 7.918,-31.447 7.867,-31.493M-10.262,-46.579C-10.31,-46.621 -10.333,-46.688 -10.317,-46.755C-10.294,-46.851 -10.197,-46.911 -10.101,-46.887C-9.633,-46.776 -9.164,-46.65 -8.705,-46.513C-8.611,-46.484 -8.557,-46.386 -8.585,-46.289C-8.613,-46.194 -8.713,-46.14 -8.809,-46.169C-9.261,-46.304 -9.723,-46.428 -10.184,-46.539C-10.214,-46.545 -10.24,-46.56 -10.262,-46.579M8.888,-28.803C8.865,-28.824 8.846,-28.851 8.837,-28.883C8.694,-29.331 8.535,-29.785 8.366,-30.231C8.33,-30.324 8.377,-30.428 8.47,-30.463C8.563,-30.497 8.666,-30.451 8.702,-30.359C8.874,-29.907 9.034,-29.446 9.179,-28.992C9.209,-28.897 9.157,-28.796 9.063,-28.767C9,-28.747 8.934,-28.763 8.888,-28.803M-13.085,-47.096C-13.127,-47.134 -13.152,-47.192 -13.144,-47.252C-13.131,-47.351 -13.041,-47.42 -12.943,-47.408C-12.47,-47.348 -11.989,-47.273 -11.514,-47.187C-11.419,-47.168 -11.352,-47.075 -11.37,-46.977C-11.388,-46.88 -11.481,-46.815 -11.579,-46.833C-12.047,-46.919 -12.521,-46.992 -12.988,-47.052C-13.026,-47.057 -13.059,-47.072 -13.085,-47.096M9.616,-26.02C9.588,-26.045 9.568,-26.079 9.56,-26.119C9.464,-26.586 9.355,-27.054 9.236,-27.51C9.21,-27.606 9.268,-27.704 9.364,-27.729C9.46,-27.754 9.558,-27.698 9.583,-27.601C9.704,-27.139 9.815,-26.664 9.911,-26.191C9.932,-26.094 9.869,-25.998 9.772,-25.979C9.714,-25.967 9.657,-25.984 9.616,-26.02M-15.949,-47.306C-15.987,-47.339 -16.011,-47.388 -16.01,-47.444C-16.007,-47.542 -15.925,-47.622 -15.826,-47.619C-15.343,-47.61 -14.857,-47.587 -14.383,-47.552C-14.283,-47.544 -14.209,-47.458 -14.216,-47.36C-14.224,-47.261 -14.31,-47.187 -14.409,-47.194C-14.877,-47.228 -15.356,-47.25 -15.834,-47.26C-15.878,-47.261 -15.918,-47.278 -15.949,-47.306M10.039,-23.178C10.006,-23.207 9.984,-23.249 9.98,-23.296C9.935,-23.764 9.878,-24.241 9.808,-24.713C9.793,-24.811 9.861,-24.903 9.959,-24.917C10.058,-24.931 10.148,-24.862 10.163,-24.765C10.234,-24.287 10.293,-23.804 10.337,-23.329C10.347,-23.23 10.274,-23.143 10.175,-23.134C10.123,-23.128 10.075,-23.146 10.039,-23.178M-18.82,-47.209C-18.853,-47.238 -18.875,-47.28 -18.879,-47.327C-18.888,-47.426 -18.815,-47.513 -18.716,-47.522C-18.234,-47.564 -17.749,-47.594 -17.272,-47.609C-17.172,-47.614 -17.09,-47.533 -17.087,-47.436C-17.084,-47.336 -17.161,-47.253 -17.261,-47.251C-17.731,-47.235 -18.21,-47.206 -18.685,-47.164C-18.736,-47.159 -18.784,-47.177 -18.82,-47.209M10.156,-20.308C10.118,-20.342 10.095,-20.391 10.096,-20.445C10.102,-20.915 10.095,-21.395 10.076,-21.871C10.072,-21.97 10.149,-22.054 10.248,-22.058C10.349,-22.061 10.431,-21.983 10.435,-21.886C10.454,-21.403 10.461,-20.917 10.455,-20.44C10.454,-20.341 10.373,-20.261 10.274,-20.263C10.228,-20.264 10.188,-20.28 10.156,-20.308M-21.666,-46.804C-21.694,-46.829 -21.714,-46.863 -21.723,-46.904C-21.742,-47.001 -21.678,-47.095 -21.581,-47.115C-21.112,-47.207 -20.633,-47.288 -20.154,-47.357C-20.056,-47.369 -19.965,-47.302 -19.951,-47.205C-19.937,-47.106 -20.005,-47.015 -20.103,-47.001C-20.575,-46.934 -21.049,-46.853 -21.512,-46.762C-21.569,-46.751 -21.625,-46.768 -21.666,-46.804M9.964,-17.443C9.922,-17.481 9.898,-17.538 9.906,-17.599C9.963,-18.074 10.008,-18.552 10.039,-19.019C10.045,-19.118 10.131,-19.193 10.23,-19.186C10.328,-19.179 10.404,-19.095 10.397,-18.995C10.365,-18.522 10.32,-18.038 10.262,-17.556C10.25,-17.457 10.161,-17.387 10.062,-17.399C10.025,-17.403 9.991,-17.419 9.964,-17.443M-24.452,-46.097C-24.476,-46.118 -24.494,-46.145 -24.504,-46.178C-24.534,-46.272 -24.481,-46.373 -24.386,-46.402C-23.925,-46.546 -23.456,-46.679 -22.994,-46.796C-22.896,-46.821 -22.8,-46.762 -22.775,-46.666C-22.75,-46.57 -22.809,-46.473 -22.905,-46.448C-23.362,-46.332 -23.824,-46.202 -24.279,-46.059C-24.342,-46.04 -24.407,-46.056 -24.452,-46.097M9.467,-14.616C9.42,-14.659 9.397,-14.724 9.412,-14.791C9.518,-15.245 9.614,-15.714 9.696,-16.187C9.714,-16.285 9.807,-16.35 9.905,-16.333C10.003,-16.316 10.067,-16.222 10.051,-16.125C9.966,-15.646 9.869,-15.17 9.762,-14.709C9.739,-14.613 9.643,-14.553 9.546,-14.575C9.516,-14.582 9.489,-14.597 9.467,-14.616M-27.148,-45.092C-27.167,-45.109 -27.182,-45.13 -27.193,-45.155C-27.233,-45.246 -27.191,-45.352 -27.1,-45.391C-26.654,-45.585 -26.203,-45.768 -25.757,-45.933C-25.662,-45.968 -25.56,-45.919 -25.526,-45.827C-25.491,-45.734 -25.539,-45.631 -25.632,-45.596C-26.071,-45.433 -26.517,-45.253 -26.957,-45.062C-27.023,-45.033 -27.097,-45.047 -27.148,-45.092M8.669,-11.862C8.616,-11.909 8.594,-11.985 8.618,-12.055C8.775,-12.503 8.921,-12.96 9.052,-13.412C9.079,-13.507 9.179,-13.562 9.274,-13.534C9.368,-13.506 9.425,-13.407 9.397,-13.312C9.264,-12.853 9.116,-12.391 8.958,-11.937C8.925,-11.843 8.822,-11.794 8.729,-11.826C8.706,-11.834 8.686,-11.847 8.669,-11.862M-29.72,-43.801C-29.734,-43.814 -29.747,-43.828 -29.757,-43.846C-29.806,-43.932 -29.776,-44.042 -29.69,-44.091C-29.275,-44.328 -28.846,-44.559 -28.413,-44.776C-28.324,-44.821 -28.218,-44.787 -28.172,-44.697C-28.127,-44.608 -28.163,-44.5 -28.252,-44.456C-28.678,-44.241 -29.102,-44.014 -29.511,-43.779C-29.58,-43.74 -29.664,-43.751 -29.72,-43.801M7.574,-9.205C7.516,-9.257 7.496,-9.343 7.531,-9.417C7.736,-9.846 7.931,-10.285 8.11,-10.721C8.149,-10.813 8.253,-10.857 8.345,-10.819C8.435,-10.777 8.48,-10.675 8.443,-10.584C8.26,-10.141 8.063,-9.697 7.855,-9.261C7.813,-9.172 7.706,-9.134 7.616,-9.177C7.6,-9.184 7.586,-9.194 7.574,-9.205M-32.133,-42.241L-32.159,-42.269C-32.217,-42.35 -32.199,-42.461 -32.119,-42.52C-31.735,-42.8 -31.333,-43.075 -30.926,-43.338C-30.844,-43.392 -30.735,-43.368 -30.678,-43.285C-30.624,-43.202 -30.648,-43.091 -30.731,-43.037C-31.133,-42.777 -31.528,-42.505 -31.908,-42.229C-31.977,-42.179 -32.071,-42.185 -32.133,-42.241M6.199,-6.683C6.135,-6.74 6.119,-6.836 6.166,-6.912C6.412,-7.31 6.653,-7.725 6.882,-8.145C6.93,-8.232 7.039,-8.264 7.126,-8.216C7.217,-8.166 7.245,-8.059 7.198,-7.973C6.966,-7.547 6.721,-7.127 6.471,-6.722C6.419,-6.638 6.308,-6.612 6.224,-6.664L6.199,-6.683ZM-34.362,-40.429L-34.376,-40.442C-34.443,-40.516 -34.437,-40.63 -34.364,-40.696C-34.007,-41.02 -33.637,-41.337 -33.266,-41.639C-33.188,-41.7 -33.081,-41.694 -33.013,-41.612C-32.95,-41.535 -32.962,-41.423 -33.039,-41.359C-33.405,-41.062 -33.77,-40.749 -34.122,-40.43C-34.191,-40.368 -34.295,-40.369 -34.362,-40.429M4.564,-4.32C4.494,-4.383 4.479,-4.493 4.537,-4.568C4.826,-4.94 5.111,-5.327 5.382,-5.718C5.439,-5.8 5.551,-5.82 5.632,-5.763C5.721,-5.705 5.735,-5.595 5.678,-5.513C5.402,-5.117 5.114,-4.725 4.82,-4.348C4.76,-4.269 4.642,-4.259 4.564,-4.32M-36.854,-37.842C-36.927,-37.907 -36.937,-38.019 -36.874,-38.094C-36.718,-38.279 -36.56,-38.461 -36.398,-38.643C-36.074,-39.005 -35.741,-39.36 -35.408,-39.696C-35.339,-39.765 -35.245,-39.76 -35.153,-39.697C-35.083,-39.627 -35.083,-39.513 -35.152,-39.442C-35.482,-39.112 -35.81,-38.761 -36.13,-38.403C-36.289,-38.225 -36.446,-38.044 -36.599,-37.862C-36.664,-37.786 -36.779,-37.779 -36.854,-37.842M2.673,-2.156C2.602,-2.225 2.597,-2.342 2.667,-2.413C2.914,-2.669 3.156,-2.932 3.394,-3.199L3.631,-3.465C3.696,-3.54 3.809,-3.548 3.884,-3.483C3.958,-3.418 3.966,-3.304 3.902,-3.229L3.663,-2.961C3.42,-2.689 3.176,-2.422 2.925,-2.163C2.858,-2.094 2.745,-2.092 2.673,-2.156M-38.589,-35.553C-38.655,-35.612 -38.67,-35.712 -38.618,-35.788C-38.348,-36.187 -38.065,-36.583 -37.776,-36.964C-37.717,-37.044 -37.603,-37.059 -37.525,-36.999C-37.442,-36.948 -37.43,-36.826 -37.489,-36.748C-37.774,-36.371 -38.054,-35.98 -38.32,-35.586C-38.376,-35.504 -38.488,-35.483 -38.57,-35.538L-38.589,-35.553ZM0.573,-0.196L0.555,-0.216C0.491,-0.292 0.502,-0.405 0.578,-0.468C0.938,-0.77 1.299,-1.087 1.648,-1.412C1.722,-1.48 1.84,-1.486 1.902,-1.403C1.97,-1.33 1.966,-1.217 1.893,-1.149C1.539,-0.819 1.174,-0.498 0.808,-0.192C0.738,-0.135 0.639,-0.138 0.573,-0.196M-40.066,-33.088C-40.126,-33.142 -40.144,-33.232 -40.105,-33.307C-39.879,-33.735 -39.64,-34.16 -39.396,-34.566C-39.345,-34.651 -39.234,-34.679 -39.149,-34.629C-39.055,-34.569 -39.037,-34.466 -39.087,-34.382C-39.329,-33.98 -39.564,-33.562 -39.787,-33.138C-39.834,-33.051 -39.942,-33.017 -40.03,-33.064C-40.043,-33.07 -40.066,-33.088 -40.066,-33.088M-1.727,1.525C-1.738,1.515 -1.748,1.503 -1.756,1.491C-1.811,1.408 -1.789,1.296 -1.707,1.241C-1.308,0.975 -0.916,0.698 -0.541,0.418C-0.461,0.359 -0.351,0.378 -0.289,0.454C-0.23,0.533 -0.247,0.646 -0.326,0.705C-0.705,0.989 -1.103,1.27 -1.507,1.54C-1.577,1.587 -1.667,1.578 -1.727,1.525M-41.267,-30.479C-41.321,-30.528 -41.343,-30.607 -41.314,-30.679C-41.137,-31.127 -40.945,-31.574 -40.745,-32.009C-40.703,-32.099 -40.597,-32.138 -40.507,-32.097C-40.419,-32.051 -40.378,-31.949 -40.419,-31.858C-40.616,-31.43 -40.805,-30.988 -40.98,-30.547C-41.017,-30.455 -41.121,-30.409 -41.213,-30.446C-41.233,-30.454 -41.251,-30.465 -41.267,-30.479M-4.203,2.986C-4.219,2.972 -4.233,2.955 -4.243,2.934C-4.289,2.847 -4.255,2.738 -4.166,2.692C-3.749,2.476 -3.328,2.242 -2.916,1.999C-2.83,1.947 -2.72,1.977 -2.669,2.062C-2.619,2.148 -2.647,2.258 -2.733,2.308C-3.151,2.555 -3.577,2.791 -4.001,3.011C-4.069,3.046 -4.149,3.034 -4.203,2.986M-42.176,-27.76C-42.226,-27.803 -42.249,-27.873 -42.23,-27.942C-42.103,-28.401 -41.962,-28.866 -41.809,-29.323C-41.777,-29.417 -41.675,-29.468 -41.582,-29.436C-41.49,-29.405 -41.437,-29.303 -41.468,-29.209C-41.619,-28.758 -41.759,-28.299 -41.883,-27.846C-41.91,-27.75 -42.009,-27.694 -42.105,-27.72C-42.132,-27.728 -42.156,-27.742 -42.176,-27.76M-6.824,4.172C-6.845,4.153 -6.861,4.13 -6.872,4.102C-6.908,4.01 -6.862,3.906 -6.77,3.87C-6.326,3.697 -5.882,3.511 -5.453,3.317C-5.363,3.276 -5.255,3.316 -5.215,3.406C-5.174,3.496 -5.214,3.603 -5.304,3.644C-5.74,3.841 -6.189,4.03 -6.64,4.205C-6.704,4.23 -6.775,4.215 -6.824,4.172M-42.787,-24.957C-42.831,-24.996 -42.855,-25.057 -42.845,-25.119C-42.769,-25.595 -42.678,-26.073 -42.576,-26.539C-42.554,-26.636 -42.459,-26.697 -42.362,-26.675C-42.267,-26.657 -42.203,-26.56 -42.225,-26.462C-42.325,-26.003 -42.414,-25.531 -42.49,-25.062C-42.506,-24.964 -42.598,-24.897 -42.696,-24.913C-42.731,-24.919 -42.763,-24.935 -42.787,-24.957M-9.559,5.066C-9.584,5.043 -9.603,5.013 -9.613,4.979C-9.639,4.883 -9.582,4.784 -9.486,4.758C-9.021,4.633 -8.56,4.496 -8.116,4.351C-8.023,4.319 -7.922,4.37 -7.89,4.466C-7.859,4.56 -7.911,4.661 -8.005,4.692C-8.455,4.84 -8.922,4.978 -9.393,5.105C-9.453,5.121 -9.516,5.105 -9.559,5.066M-43.094,-22.101C-43.133,-22.136 -43.157,-22.188 -43.154,-22.245C-43.129,-22.728 -43.09,-23.213 -43.039,-23.686C-43.028,-23.785 -42.939,-23.856 -42.841,-23.845C-42.742,-23.837 -42.67,-23.748 -42.681,-23.648C-42.731,-23.181 -42.77,-22.703 -42.795,-22.226C-42.8,-22.127 -42.885,-22.051 -42.984,-22.056C-43.026,-22.058 -43.065,-22.075 -43.094,-22.101M-12.371,5.659C-12.401,5.633 -12.422,5.596 -12.429,5.553C-12.445,5.455 -12.377,5.363 -12.279,5.347C-11.81,5.275 -11.338,5.188 -10.875,5.09C-10.777,5.07 -10.683,5.133 -10.662,5.229C-10.642,5.326 -10.704,5.421 -10.801,5.442C-11.27,5.541 -11.749,5.629 -12.224,5.703C-12.279,5.711 -12.332,5.694 -12.371,5.659M-43.093,-19.229C-43.127,-19.26 -43.15,-19.304 -43.153,-19.354C-43.179,-19.839 -43.192,-20.326 -43.191,-20.8C-43.191,-20.899 -43.111,-20.98 -43.012,-20.979C-42.911,-20.978 -42.832,-20.898 -42.832,-20.8C-42.833,-20.332 -42.82,-19.852 -42.794,-19.373C-42.788,-19.274 -42.864,-19.189 -42.964,-19.184C-43.012,-19.181 -43.059,-19.199 -43.093,-19.229M-15.23,5.95C-15.265,5.919 -15.288,5.874 -15.29,5.824C-15.295,5.725 -15.218,5.641 -15.119,5.636C-14.646,5.614 -14.168,5.577 -13.697,5.53C-13.597,5.522 -13.509,5.594 -13.499,5.69C-13.49,5.789 -13.562,5.877 -13.66,5.888C-14.137,5.936 -14.623,5.972 -15.103,5.995C-15.152,5.997 -15.196,5.98 -15.23,5.95M-42.784,-16.372C-42.814,-16.398 -42.835,-16.435 -42.842,-16.477C-42.919,-16.95 -42.985,-17.433 -43.036,-17.91C-43.047,-18.009 -42.975,-18.098 -42.877,-18.108C-42.778,-18.118 -42.689,-18.047 -42.679,-17.949C-42.628,-17.478 -42.564,-17.002 -42.487,-16.535C-42.471,-16.437 -42.538,-16.344 -42.636,-16.328C-42.692,-16.319 -42.745,-16.337 -42.784,-16.372M-18.102,5.93C-18.142,5.895 -18.165,5.842 -18.161,5.785C-18.156,5.686 -18.07,5.611 -17.971,5.617C-17.505,5.645 -17.025,5.661 -16.546,5.664C-16.447,5.665 -16.367,5.746 -16.368,5.845C-16.368,5.944 -16.449,6.024 -16.548,6.023C-17.035,6.021 -17.521,6.004 -17.993,5.975C-18.035,5.972 -18.072,5.956 -18.102,5.93M-42.171,-13.563C-42.196,-13.586 -42.215,-13.615 -42.224,-13.65C-42.352,-14.113 -42.469,-14.586 -42.571,-15.054C-42.592,-15.152 -42.531,-15.247 -42.434,-15.268C-42.337,-15.29 -42.24,-15.227 -42.22,-15.131C-42.119,-14.669 -42.004,-14.202 -41.878,-13.745C-41.851,-13.649 -41.907,-13.551 -42.003,-13.524C-42.064,-13.507 -42.126,-13.524 -42.171,-13.563M-20.955,5.604C-20.999,5.565 -21.023,5.503 -21.013,5.44C-20.996,5.342 -20.903,5.276 -20.805,5.293C-20.343,5.372 -19.868,5.439 -19.394,5.494C-19.297,5.504 -19.223,5.594 -19.236,5.692C-19.247,5.791 -19.336,5.862 -19.435,5.85C-19.916,5.795 -20.397,5.727 -20.865,5.647C-20.9,5.641 -20.93,5.626 -20.955,5.604M-41.258,-10.836C-41.279,-10.854 -41.295,-10.877 -41.306,-10.904C-41.48,-11.346 -41.647,-11.804 -41.802,-12.264C-41.834,-12.358 -41.783,-12.46 -41.689,-12.491C-41.594,-12.524 -41.492,-12.474 -41.462,-12.378C-41.309,-11.924 -41.144,-11.473 -40.971,-11.036C-40.935,-10.944 -40.98,-10.839 -41.072,-10.803C-41.138,-10.777 -41.209,-10.792 -41.258,-10.836M-23.753,4.974C-23.803,4.93 -23.826,4.859 -23.806,4.791C-23.78,4.696 -23.68,4.64 -23.585,4.667C-23.126,4.797 -22.661,4.914 -22.204,5.017C-22.107,5.038 -22.047,5.135 -22.068,5.232C-22.09,5.328 -22.186,5.39 -22.283,5.368C-22.746,5.264 -23.217,5.144 -23.682,5.013C-23.71,5.005 -23.733,4.992 -23.753,4.974M-40.056,-8.222C-40.071,-8.236 -40.085,-8.253 -40.095,-8.272C-40.32,-8.698 -40.535,-9.135 -40.736,-9.572C-40.777,-9.662 -40.738,-9.769 -40.647,-9.811C-40.557,-9.851 -40.452,-9.812 -40.409,-9.722C-40.211,-9.291 -39.998,-8.86 -39.777,-8.44C-39.731,-8.352 -39.764,-8.244 -39.852,-8.197C-39.921,-8.161 -40.001,-8.174 -40.056,-8.222M-26.467,4.047C-26.522,3.998 -26.544,3.917 -26.514,3.845C-26.477,3.753 -26.372,3.709 -26.28,3.746C-25.843,3.923 -25.394,4.09 -24.946,4.244C-24.852,4.275 -24.801,4.378 -24.834,4.472C-24.866,4.566 -24.968,4.616 -25.062,4.583C-25.517,4.428 -25.972,4.258 -26.415,4.079C-26.434,4.071 -26.452,4.06 -26.467,4.047M-38.577,-5.755C-38.588,-5.765 -38.597,-5.776 -38.606,-5.789C-38.874,-6.187 -39.136,-6.597 -39.383,-7.008C-39.434,-7.093 -39.406,-7.203 -39.321,-7.254C-39.237,-7.306 -39.127,-7.278 -39.075,-7.193C-38.831,-6.787 -38.573,-6.383 -38.308,-5.99C-38.253,-5.908 -38.274,-5.796 -38.356,-5.74C-38.426,-5.693 -38.517,-5.702 -38.577,-5.755M-29.069,2.827C-29.129,2.773 -29.148,2.683 -29.107,2.608C-29.061,2.521 -28.952,2.488 -28.864,2.535C-28.449,2.758 -28.02,2.974 -27.589,3.176C-27.499,3.219 -27.46,3.325 -27.503,3.414C-27.545,3.505 -27.652,3.543 -27.742,3.501C-28.179,3.296 -28.614,3.077 -29.034,2.851C-29.047,2.844 -29.069,2.827 -29.069,2.827M-36.84,-3.466L-36.858,-3.484C-37.169,-3.852 -37.474,-4.232 -37.763,-4.614C-37.823,-4.692 -37.807,-4.806 -37.728,-4.866C-37.649,-4.926 -37.539,-4.913 -37.476,-4.83C-37.191,-4.455 -36.891,-4.079 -36.584,-3.716C-36.519,-3.641 -36.529,-3.527 -36.605,-3.463C-36.674,-3.405 -36.774,-3.407 -36.84,-3.466M-31.523,1.333C-31.589,1.274 -31.603,1.174 -31.551,1.097C-31.495,1.016 -31.384,0.995 -31.301,1.051C-30.912,1.318 -30.509,1.578 -30.103,1.826C-30.011,1.876 -29.991,1.988 -30.043,2.073C-30.094,2.157 -30.205,2.184 -30.29,2.133C-30.701,1.882 -31.11,1.618 -31.505,1.347L-31.523,1.333ZM-34.871,-1.379C-35.22,-1.711 -35.566,-2.059 -35.894,-2.407C-35.962,-2.479 -35.959,-2.592 -35.886,-2.661C-35.814,-2.729 -35.691,-2.725 -35.632,-2.653C-35.308,-2.31 -34.969,-1.97 -34.625,-1.641C-34.553,-1.573 -34.55,-1.459 -34.619,-1.387C-34.686,-1.317 -34.799,-1.315 -34.871,-1.379M-33.801,-0.414C-33.874,-0.479 -33.883,-0.591 -33.819,-0.666C-33.755,-0.741 -33.642,-0.75 -33.566,-0.686C-33.203,-0.376 -32.83,-0.073 -32.456,0.213C-32.356,0.263 -32.363,0.386 -32.423,0.465C-32.483,0.544 -32.596,0.559 -32.675,0.498C-33.053,0.208 -33.433,-0.1 -33.801,-0.414" style="fill:rgb(237,74,149);fill-rule:nonzero;"/>
                </g>
                <g transform="matrix(1,0,0,1,504.3147,894.2033)">
                    <path d="M0,-22.326L-0.011,-22.337C-0.335,-22.68 -0.678,-23.013 -1.029,-23.325C-1.051,-23.345 -1.067,-23.369 -1.077,-23.394C-1.101,-23.456 -1.091,-23.528 -1.044,-23.581C-0.975,-23.659 -0.849,-23.674 -0.779,-23.584C-0.424,-23.267 -0.078,-22.931 0.25,-22.584C0.318,-22.511 0.315,-22.398 0.243,-22.33C0.175,-22.265 0.069,-22.264 0,-22.326M-3.331,-25.044C-3.395,-25.101 -3.411,-25.197 -3.364,-25.273C-3.312,-25.357 -3.201,-25.383 -3.117,-25.331C-2.706,-25.077 -2.302,-24.802 -1.917,-24.514C-1.839,-24.458 -1.821,-24.341 -1.88,-24.262C-1.94,-24.183 -2.052,-24.166 -2.132,-24.226C-2.509,-24.507 -2.904,-24.776 -3.306,-25.025L-3.331,-25.044ZM1.782,-20.076C1.771,-20.086 1.76,-20.098 1.752,-20.111C1.495,-20.503 1.215,-20.89 0.919,-21.263C0.857,-21.34 0.871,-21.454 0.948,-21.515C1.026,-21.577 1.139,-21.571 1.201,-21.486C1.503,-21.105 1.789,-20.709 2.052,-20.309C2.107,-20.226 2.083,-20.114 2,-20.06C1.931,-20.014 1.841,-20.023 1.782,-20.076M-5.895,-26.334C-5.95,-26.383 -5.971,-26.463 -5.942,-26.535C-5.906,-26.627 -5.801,-26.672 -5.709,-26.635C-5.264,-26.458 -4.818,-26.257 -4.384,-26.039C-4.296,-25.994 -4.259,-25.887 -4.304,-25.798C-4.348,-25.709 -4.457,-25.673 -4.545,-25.718C-4.97,-25.931 -5.406,-26.128 -5.842,-26.301C-5.862,-26.309 -5.88,-26.32 -5.895,-26.334M3.144,-17.548C3.125,-17.565 3.11,-17.587 3.099,-17.611C2.911,-18.048 2.703,-18.478 2.48,-18.891C2.433,-18.979 2.466,-19.088 2.552,-19.135C2.64,-19.182 2.749,-19.146 2.796,-19.063C3.025,-18.639 3.237,-18.199 3.429,-17.754C3.468,-17.663 3.426,-17.557 3.335,-17.518C3.269,-17.489 3.195,-17.504 3.144,-17.548M-8.644,-27.157C-8.69,-27.199 -8.714,-27.263 -8.701,-27.328C-8.681,-27.425 -8.586,-27.488 -8.488,-27.468C-8.013,-27.37 -7.539,-27.25 -7.08,-27.112C-6.985,-27.084 -6.931,-26.984 -6.96,-26.888C-6.988,-26.793 -7.088,-26.74 -7.183,-26.768C-7.632,-26.903 -8.096,-27.02 -8.561,-27.116C-8.593,-27.122 -8.621,-27.137 -8.644,-27.157M4.044,-14.822C4.018,-14.846 3.998,-14.877 3.989,-14.915C3.88,-15.377 3.749,-15.837 3.602,-16.282C3.572,-16.376 3.623,-16.478 3.716,-16.51C3.812,-16.541 3.913,-16.488 3.944,-16.396C4.094,-15.94 4.227,-15.47 4.339,-14.997C4.362,-14.901 4.302,-14.804 4.205,-14.781C4.146,-14.767 4.086,-14.784 4.044,-14.822M-11.496,-27.489C-11.534,-27.523 -11.557,-27.573 -11.556,-27.629C-11.553,-27.728 -11.47,-27.806 -11.371,-27.803C-10.89,-27.79 -10.402,-27.754 -9.922,-27.699C-9.824,-27.686 -9.752,-27.598 -9.764,-27.499C-9.776,-27.4 -9.865,-27.33 -9.964,-27.341C-10.433,-27.396 -10.91,-27.43 -11.381,-27.444C-11.425,-27.445 -11.465,-27.462 -11.496,-27.489M4.458,-11.979C4.424,-12.01 4.401,-12.053 4.398,-12.103C4.371,-12.575 4.323,-13.051 4.254,-13.518C4.24,-13.616 4.308,-13.707 4.407,-13.722C4.504,-13.735 4.597,-13.666 4.61,-13.569C4.68,-13.092 4.729,-12.606 4.757,-12.124C4.763,-12.025 4.687,-11.94 4.588,-11.934C4.538,-11.931 4.493,-11.948 4.458,-11.979M-14.362,-27.324C-14.392,-27.351 -14.414,-27.389 -14.42,-27.432C-14.434,-27.53 -14.367,-27.621 -14.268,-27.636C-13.797,-27.704 -13.31,-27.754 -12.822,-27.783C-12.724,-27.788 -12.638,-27.714 -12.633,-27.614C-12.627,-27.514 -12.702,-27.43 -12.802,-27.424C-13.279,-27.396 -13.755,-27.347 -14.217,-27.28C-14.271,-27.272 -14.324,-27.29 -14.362,-27.324M4.375,-9.11C4.333,-9.147 4.309,-9.204 4.316,-9.265C4.371,-9.734 4.405,-10.211 4.419,-10.682C4.421,-10.781 4.504,-10.86 4.604,-10.857C4.702,-10.855 4.781,-10.771 4.778,-10.672C4.765,-10.191 4.729,-9.703 4.674,-9.223C4.662,-9.124 4.573,-9.054 4.474,-9.065C4.436,-9.07 4.402,-9.086 4.375,-9.11M-17.157,-26.665C-17.18,-26.685 -17.198,-26.712 -17.208,-26.742C-17.239,-26.837 -17.187,-26.939 -17.094,-26.97C-16.636,-27.12 -16.165,-27.253 -15.695,-27.364C-15.597,-27.387 -15.501,-27.326 -15.479,-27.231C-15.456,-27.134 -15.516,-27.037 -15.612,-27.014C-16.073,-26.906 -16.533,-26.776 -16.981,-26.629C-17.044,-26.608 -17.11,-26.624 -17.157,-26.665M3.795,-6.299C3.745,-6.344 3.722,-6.415 3.743,-6.485C3.878,-6.936 3.995,-7.4 4.09,-7.863C4.11,-7.96 4.205,-8.023 4.302,-8.003C4.397,-7.983 4.461,-7.889 4.442,-7.79C4.344,-7.317 4.225,-6.843 4.087,-6.381C4.058,-6.286 3.958,-6.233 3.863,-6.261C3.837,-6.269 3.814,-6.282 3.795,-6.299M-19.794,-25.531C-19.809,-25.544 -19.823,-25.561 -19.833,-25.579C-19.88,-25.667 -19.847,-25.776 -19.76,-25.823C-19.337,-26.051 -18.897,-26.264 -18.452,-26.455C-18.36,-26.494 -18.255,-26.451 -18.215,-26.362C-18.176,-26.27 -18.218,-26.165 -18.309,-26.125C-18.745,-25.938 -19.176,-25.73 -19.589,-25.507C-19.657,-25.47 -19.739,-25.482 -19.794,-25.531M2.735,-3.632C2.675,-3.685 2.656,-3.773 2.694,-3.847C2.904,-4.264 3.1,-4.701 3.277,-5.144C3.313,-5.235 3.418,-5.28 3.511,-5.244C3.6,-5.206 3.647,-5.103 3.611,-5.01C3.43,-4.558 3.23,-4.112 3.014,-3.685C2.97,-3.596 2.862,-3.561 2.773,-3.606C2.759,-3.613 2.746,-3.622 2.735,-3.632M-22.193,-23.952L-22.214,-23.975C-22.276,-24.052 -22.262,-24.165 -22.185,-24.227C-21.804,-24.529 -21.407,-24.816 -21.007,-25.078C-20.925,-25.133 -20.81,-25.105 -20.759,-25.027C-20.704,-24.944 -20.727,-24.832 -20.81,-24.778C-21.201,-24.521 -21.588,-24.241 -21.962,-23.946C-22.031,-23.89 -22.129,-23.895 -22.193,-23.952M1.225,-1.192C1.156,-1.254 1.144,-1.359 1.201,-1.434C1.482,-1.811 1.751,-2.206 2,-2.608C2.052,-2.693 2.164,-2.718 2.248,-2.666C2.336,-2.618 2.358,-2.504 2.306,-2.419C2.052,-2.008 1.777,-1.604 1.489,-1.219C1.429,-1.139 1.317,-1.123 1.237,-1.182L1.225,-1.192ZM-24.281,-21.979C-24.355,-22.045 -24.364,-22.156 -24.298,-22.23C-23.978,-22.59 -23.633,-22.945 -23.282,-23.277C-23.211,-23.345 -23.099,-23.35 -23.028,-23.27C-22.96,-23.198 -22.963,-23.084 -23.035,-23.016C-23.379,-22.691 -23.712,-22.348 -24.025,-21.996C-24.091,-21.922 -24.207,-21.913 -24.281,-21.979M-0.684,0.952L-0.695,0.941C-0.763,0.869 -0.76,0.756 -0.688,0.688C-0.345,0.363 -0.012,0.021 0.3,-0.33C0.366,-0.404 0.481,-0.411 0.555,-0.345C0.629,-0.28 0.637,-0.167 0.571,-0.093C0.252,0.265 -0.09,0.617 -0.441,0.949C-0.509,1.013 -0.615,1.014 -0.684,0.952M-26,-19.676C-26.064,-19.733 -26.08,-19.829 -26.033,-19.904C-25.779,-20.315 -25.504,-20.719 -25.216,-21.105C-25.156,-21.184 -25.044,-21.2 -24.965,-21.141C-24.883,-21.073 -24.869,-20.968 -24.928,-20.889C-25.21,-20.512 -25.479,-20.117 -25.728,-19.715C-25.78,-19.631 -25.891,-19.605 -25.975,-19.657L-26,-19.676ZM-2.933,2.735C-2.945,2.725 -2.955,2.713 -2.964,2.699C-3.019,2.617 -2.995,2.505 -2.913,2.451C-2.521,2.194 -2.134,1.914 -1.761,1.618C-1.684,1.557 -1.57,1.565 -1.509,1.647C-1.447,1.725 -1.46,1.838 -1.538,1.9C-1.919,2.202 -2.315,2.488 -2.715,2.751C-2.785,2.797 -2.874,2.788 -2.933,2.735M-27.29,-17.112C-27.345,-17.16 -27.367,-17.24 -27.337,-17.312C-27.159,-17.762 -26.959,-18.208 -26.742,-18.637C-26.698,-18.726 -26.59,-18.762 -26.501,-18.717C-26.415,-18.672 -26.376,-18.564 -26.422,-18.476C-26.633,-18.056 -26.829,-17.62 -27.004,-17.18C-27.04,-17.087 -27.144,-17.042 -27.236,-17.079C-27.257,-17.087 -27.275,-17.098 -27.29,-17.112M-5.461,4.097C-5.48,4.08 -5.495,4.059 -5.506,4.034C-5.545,3.943 -5.504,3.837 -5.412,3.798C-4.976,3.61 -4.546,3.402 -4.133,3.179C-4.045,3.133 -3.935,3.167 -3.889,3.252C-3.842,3.339 -3.875,3.449 -3.961,3.495C-4.385,3.724 -4.825,3.936 -5.27,4.128C-5.336,4.156 -5.411,4.142 -5.461,4.097M-28.112,-14.363C-28.158,-14.404 -28.181,-14.468 -28.168,-14.533C-28.071,-15.006 -27.951,-15.481 -27.813,-15.942C-27.785,-16.037 -27.684,-16.091 -27.589,-16.062C-27.495,-16.034 -27.441,-15.935 -27.469,-15.839C-27.604,-15.387 -27.721,-14.924 -27.816,-14.46C-27.836,-14.364 -27.931,-14.3 -28.029,-14.321C-28.06,-14.327 -28.089,-14.342 -28.112,-14.363M-8.188,4.998C-8.215,4.974 -8.234,4.942 -8.244,4.905C-8.267,4.808 -8.207,4.711 -8.11,4.688C-7.647,4.579 -7.187,4.449 -6.742,4.302C-6.647,4.271 -6.546,4.322 -6.515,4.416C-6.484,4.51 -6.535,4.612 -6.629,4.643C-7.084,4.793 -7.554,4.927 -8.027,5.038C-8.086,5.052 -8.146,5.035 -8.188,4.998M-28.443,-11.511C-28.482,-11.545 -28.505,-11.595 -28.504,-11.65C-28.49,-12.132 -28.455,-12.619 -28.399,-13.1C-28.387,-13.198 -28.298,-13.268 -28.199,-13.257C-28.102,-13.245 -28.03,-13.157 -28.042,-13.058C-28.097,-12.589 -28.131,-12.111 -28.144,-11.64C-28.147,-11.541 -28.23,-11.463 -28.329,-11.465C-28.373,-11.467 -28.413,-11.484 -28.443,-11.511M-11.029,5.412C-11.063,5.381 -11.086,5.338 -11.089,5.288C-11.095,5.189 -11.019,5.104 -10.92,5.098C-10.447,5.07 -9.971,5.022 -9.505,4.954C-9.407,4.94 -9.316,5.009 -9.302,5.106C-9.288,5.204 -9.355,5.295 -9.454,5.31C-9.929,5.379 -10.415,5.429 -10.899,5.457C-10.949,5.46 -10.995,5.443 -11.029,5.412M-28.276,-8.644C-28.307,-8.671 -28.328,-8.709 -28.335,-8.752C-28.405,-9.233 -28.455,-9.719 -28.482,-10.197C-28.488,-10.296 -28.412,-10.381 -28.313,-10.387C-28.214,-10.393 -28.129,-10.317 -28.123,-10.218C-28.096,-9.75 -28.047,-9.274 -27.979,-8.803C-27.965,-8.705 -28.032,-8.614 -28.131,-8.6C-28.186,-8.592 -28.238,-8.609 -28.276,-8.644M-13.899,5.328C-13.941,5.291 -13.965,5.233 -13.958,5.173C-13.946,5.074 -13.857,5.004 -13.758,5.015C-13.289,5.07 -12.812,5.104 -12.341,5.118C-12.242,5.12 -12.163,5.203 -12.166,5.303C-12.169,5.402 -12.252,5.48 -12.351,5.477C-12.832,5.464 -13.32,5.428 -13.8,5.373C-13.838,5.368 -13.872,5.352 -13.899,5.328M-27.617,-5.85C-27.64,-5.871 -27.658,-5.897 -27.668,-5.928C-27.818,-6.382 -27.951,-6.852 -28.064,-7.326C-28.087,-7.423 -28.027,-7.52 -27.93,-7.543C-27.834,-7.565 -27.737,-7.505 -27.714,-7.409C-27.604,-6.945 -27.474,-6.485 -27.327,-6.041C-27.296,-5.947 -27.347,-5.845 -27.441,-5.814C-27.504,-5.793 -27.571,-5.809 -27.617,-5.85M-16.711,4.749C-16.761,4.705 -16.784,4.633 -16.763,4.563C-16.735,4.468 -16.635,4.415 -16.54,4.443C-16.088,4.578 -15.625,4.695 -15.161,4.79C-15.067,4.809 -15.002,4.904 -15.022,5.003C-15.042,5.099 -15.137,5.163 -15.234,5.142C-15.707,5.045 -16.182,4.926 -16.643,4.787C-16.669,4.779 -16.692,4.766 -16.711,4.749M-26.481,-3.211C-26.496,-3.225 -26.51,-3.241 -26.52,-3.26C-26.748,-3.683 -26.96,-4.123 -27.152,-4.569C-27.191,-4.66 -27.15,-4.766 -27.058,-4.805C-26.968,-4.844 -26.862,-4.8 -26.822,-4.711C-26.635,-4.275 -26.427,-3.844 -26.203,-3.431C-26.157,-3.343 -26.189,-3.234 -26.276,-3.187C-26.344,-3.151 -26.426,-3.162 -26.481,-3.211M-19.377,3.689C-19.437,3.637 -19.456,3.548 -19.418,3.475C-19.374,3.385 -19.266,3.35 -19.177,3.395C-18.757,3.606 -18.321,3.802 -17.881,3.977C-17.788,4.011 -17.743,4.119 -17.78,4.21C-17.816,4.303 -17.92,4.348 -18.012,4.311C-18.463,4.132 -18.91,3.932 -19.339,3.716C-19.353,3.708 -19.366,3.7 -19.377,3.689M-24.903,-0.815L-24.924,-0.837C-25.226,-1.219 -25.513,-1.615 -25.775,-2.015C-25.83,-2.097 -25.807,-2.209 -25.724,-2.263C-25.64,-2.318 -25.529,-2.29 -25.475,-2.212C-25.218,-1.821 -24.938,-1.434 -24.642,-1.06C-24.581,-0.983 -24.594,-0.87 -24.672,-0.808C-24.741,-0.753 -24.839,-0.758 -24.903,-0.815M-21.818,2.18C-21.887,2.118 -21.899,2.013 -21.843,1.938C-21.783,1.859 -21.671,1.842 -21.591,1.902C-21.214,2.183 -20.819,2.452 -20.417,2.701C-20.327,2.754 -20.307,2.864 -20.359,2.949C-20.411,3.033 -20.522,3.059 -20.606,3.007C-21.017,2.753 -21.421,2.478 -21.806,2.19L-21.818,2.18ZM-22.932,1.272L-22.943,1.261C-23.302,0.941 -23.648,0.604 -23.973,0.261C-24.041,0.188 -24.038,0.075 -23.966,0.007C-23.894,-0.061 -23.776,-0.061 -23.712,0.014C-23.391,0.353 -23.05,0.685 -22.696,1L-22.676,1.02C-22.618,1.087 -22.617,1.189 -22.678,1.257C-22.744,1.331 -22.858,1.338 -22.932,1.272" style="fill:rgb(237,74,149);fill-rule:nonzero;"/>
                </g>
                <g transform="matrix(1,0,0,1,496.2202,897.5762)">
                    <path d="M0,-16.894C-0.065,-16.952 -0.08,-17.05 -0.032,-17.125C0.022,-17.208 0.133,-17.233 0.217,-17.179C0.622,-16.92 1.018,-16.625 1.389,-16.305C1.462,-16.24 1.471,-16.127 1.407,-16.053C1.342,-15.978 1.229,-15.969 1.153,-16.034C0.795,-16.342 0.415,-16.626 0.022,-16.877L0,-16.894ZM3.041,-13.882C3.03,-13.893 3.019,-13.905 3.01,-13.918C2.754,-14.311 2.467,-14.688 2.157,-15.041C2.091,-15.116 2.099,-15.229 2.173,-15.295C2.248,-15.361 2.362,-15.356 2.427,-15.279C2.749,-14.913 3.046,-14.522 3.311,-14.115C3.365,-14.032 3.342,-13.92 3.259,-13.866C3.19,-13.821 3.101,-13.83 3.041,-13.882M-2.606,-18.083C-2.657,-18.128 -2.68,-18.199 -2.659,-18.268C-2.631,-18.363 -2.531,-18.417 -2.436,-18.389C-1.971,-18.253 -1.51,-18.081 -1.067,-17.879C-0.977,-17.831 -0.937,-17.73 -0.977,-17.64C-1.019,-17.55 -1.125,-17.51 -1.216,-17.551C-1.644,-17.747 -2.088,-17.913 -2.537,-18.045C-2.564,-18.052 -2.587,-18.065 -2.606,-18.083M4.254,-11.286C4.23,-11.308 4.211,-11.335 4.201,-11.368C4.064,-11.82 3.894,-12.263 3.697,-12.686C3.655,-12.776 3.693,-12.883 3.783,-12.925C3.874,-12.967 3.979,-12.93 4.022,-12.838C4.226,-12.4 4.402,-11.941 4.545,-11.473C4.574,-11.378 4.521,-11.278 4.426,-11.248C4.363,-11.23 4.299,-11.246 4.254,-11.286M-5.44,-18.495C-5.477,-18.528 -5.5,-18.576 -5.5,-18.63C-5.499,-18.729 -5.418,-18.809 -5.319,-18.809C-4.834,-18.807 -4.344,-18.77 -3.862,-18.701C-3.766,-18.686 -3.695,-18.597 -3.71,-18.497C-3.724,-18.399 -3.816,-18.331 -3.914,-18.345C-4.379,-18.412 -4.852,-18.448 -5.321,-18.45C-5.366,-18.45 -5.408,-18.467 -5.44,-18.495M4.693,-8.454C4.657,-8.486 4.633,-8.533 4.633,-8.586C4.627,-9.054 4.588,-9.527 4.515,-9.991C4.5,-10.089 4.568,-10.181 4.665,-10.197C4.763,-10.211 4.855,-10.145 4.871,-10.047C4.945,-9.565 4.986,-9.075 4.992,-8.59C4.993,-8.491 4.914,-8.409 4.815,-8.408C4.768,-8.408 4.725,-8.425 4.693,-8.454M-8.279,-18.105C-8.304,-18.127 -8.323,-18.156 -8.332,-18.19C-8.36,-18.286 -8.304,-18.385 -8.209,-18.412C-7.744,-18.544 -7.263,-18.645 -6.779,-18.713C-6.68,-18.724 -6.59,-18.655 -6.576,-18.559C-6.563,-18.461 -6.631,-18.37 -6.73,-18.356C-7.197,-18.292 -7.661,-18.194 -8.11,-18.066C-8.172,-18.049 -8.235,-18.066 -8.279,-18.105M4.331,-5.613C4.282,-5.657 4.258,-5.727 4.277,-5.794C4.401,-6.245 4.494,-6.711 4.554,-7.177C4.567,-7.276 4.657,-7.345 4.755,-7.333C4.854,-7.32 4.923,-7.23 4.911,-7.132C4.849,-6.649 4.752,-6.167 4.624,-5.7C4.598,-5.604 4.499,-5.548 4.404,-5.574C4.376,-5.582 4.351,-5.595 4.331,-5.613M-10.897,-16.939C-10.909,-16.949 -10.92,-16.962 -10.93,-16.977C-10.983,-17.061 -10.957,-17.172 -10.873,-17.225C-10.463,-17.483 -10.029,-17.715 -9.583,-17.914C-9.493,-17.955 -9.384,-17.917 -9.346,-17.823C-9.306,-17.732 -9.346,-17.626 -9.437,-17.586C-9.867,-17.394 -10.286,-17.17 -10.682,-16.921C-10.751,-16.877 -10.839,-16.887 -10.897,-16.939M3.188,-2.988C3.124,-3.044 3.108,-3.14 3.155,-3.216C3.401,-3.616 3.621,-4.036 3.808,-4.465C3.848,-4.556 3.953,-4.598 4.044,-4.558C4.139,-4.517 4.177,-4.412 4.137,-4.322C3.944,-3.877 3.716,-3.442 3.461,-3.028C3.409,-2.943 3.298,-2.917 3.214,-2.969L3.188,-2.988ZM-13.536,-14.532C-13.606,-14.594 -13.622,-14.704 -13.563,-14.78C-13.416,-14.97 -13.261,-15.157 -13.097,-15.34C-12.774,-15.704 -12.422,-16.047 -12.051,-16.361C-11.975,-16.426 -11.862,-16.419 -11.798,-16.34C-11.734,-16.264 -11.743,-16.151 -11.819,-16.087C-12.177,-15.784 -12.516,-15.452 -12.829,-15.101C-12.987,-14.924 -13.136,-14.744 -13.28,-14.559C-13.34,-14.481 -13.458,-14.47 -13.536,-14.532M1.358,-0.782L1.345,-0.795C1.278,-0.87 1.284,-0.983 1.357,-1.05C1.615,-1.283 1.866,-1.536 2.102,-1.802C2.181,-1.89 2.257,-1.979 2.332,-2.069C2.395,-2.145 2.509,-2.156 2.585,-2.093C2.672,-2.012 2.672,-1.916 2.608,-1.839C2.531,-1.746 2.452,-1.654 2.371,-1.563C2.126,-1.288 1.865,-1.025 1.599,-0.783C1.53,-0.721 1.426,-0.722 1.358,-0.782M-14.956,-12.045C-15.011,-12.093 -15.032,-12.172 -15.004,-12.244C-14.826,-12.699 -14.613,-13.142 -14.373,-13.563C-14.324,-13.649 -14.214,-13.679 -14.128,-13.63C-14.039,-13.58 -14.011,-13.471 -14.061,-13.385C-14.293,-12.98 -14.498,-12.551 -14.67,-12.113C-14.706,-12.021 -14.81,-11.975 -14.902,-12.011C-14.923,-12.02 -14.941,-12.031 -14.956,-12.045M-1.011,0.828C-1.028,0.813 -1.043,0.795 -1.053,0.773C-1.097,0.684 -1.06,0.577 -0.971,0.533C-0.549,0.326 -0.138,0.088 0.25,-0.175C0.333,-0.231 0.446,-0.213 0.499,-0.128C0.556,-0.046 0.534,0.066 0.452,0.121C0.05,0.395 -0.376,0.642 -0.813,0.856C-0.881,0.889 -0.958,0.876 -1.011,0.828M-15.617,-9.259C-15.658,-9.295 -15.682,-9.35 -15.677,-9.409C-15.632,-9.892 -15.553,-10.375 -15.441,-10.85C-15.418,-10.947 -15.321,-11.006 -15.225,-10.984C-15.128,-10.961 -15.068,-10.863 -15.091,-10.768C-15.199,-10.309 -15.276,-9.841 -15.319,-9.376C-15.328,-9.277 -15.415,-9.205 -15.514,-9.214C-15.554,-9.217 -15.589,-9.234 -15.617,-9.259M-3.739,1.71C-3.768,1.684 -3.789,1.648 -3.796,1.606C-3.813,1.508 -3.747,1.416 -3.65,1.399C-3.187,1.319 -2.726,1.205 -2.28,1.06C-2.185,1.029 -2.083,1.082 -2.054,1.176C-2.023,1.27 -2.075,1.371 -2.169,1.402C-2.632,1.552 -3.109,1.67 -3.589,1.752C-3.645,1.763 -3.699,1.745 -3.739,1.71M-15.478,-6.397C-15.507,-6.423 -15.527,-6.457 -15.535,-6.498C-15.626,-6.975 -15.684,-7.463 -15.709,-7.948C-15.714,-8.047 -15.637,-8.131 -15.538,-8.137C-15.439,-8.141 -15.355,-8.066 -15.349,-7.966C-15.327,-7.497 -15.27,-7.026 -15.182,-6.565C-15.164,-6.468 -15.228,-6.374 -15.325,-6.355C-15.382,-6.344 -15.438,-6.361 -15.478,-6.397M-6.601,1.799C-6.643,1.762 -6.667,1.705 -6.66,1.645C-6.65,1.546 -6.561,1.475 -6.462,1.486C-5.998,1.537 -5.524,1.556 -5.053,1.541C-4.955,1.538 -4.871,1.616 -4.868,1.716C-4.865,1.815 -4.943,1.898 -5.042,1.901C-5.53,1.915 -6.021,1.897 -6.502,1.843C-6.54,1.839 -6.574,1.823 -6.601,1.799M-14.548,-3.686C-14.565,-3.701 -14.578,-3.718 -14.589,-3.739C-14.81,-4.171 -15.002,-4.624 -15.16,-5.085C-15.192,-5.178 -15.142,-5.28 -15.048,-5.313C-14.954,-5.345 -14.853,-5.295 -14.82,-5.201C-14.667,-4.757 -14.482,-4.32 -14.269,-3.902C-14.224,-3.814 -14.259,-3.706 -14.347,-3.66C-14.415,-3.626 -14.495,-3.639 -14.548,-3.686M-9.376,1.089C-9.432,1.039 -9.453,0.958 -9.423,0.886C-9.384,0.794 -9.28,0.751 -9.188,0.788C-8.756,0.968 -8.306,1.118 -7.85,1.234C-7.754,1.258 -7.696,1.356 -7.72,1.452C-7.745,1.549 -7.843,1.607 -7.939,1.582C-8.412,1.462 -8.878,1.307 -9.326,1.121C-9.345,1.112 -9.362,1.102 -9.376,1.089M-12.897,-1.344L-12.908,-1.355C-13.244,-1.711 -13.555,-2.092 -13.833,-2.487C-13.891,-2.568 -13.871,-2.681 -13.79,-2.737C-13.71,-2.794 -13.593,-2.772 -13.54,-2.694C-13.271,-2.313 -12.971,-1.945 -12.647,-1.602C-12.579,-1.53 -12.582,-1.416 -12.654,-1.348C-12.723,-1.283 -12.828,-1.283 -12.897,-1.344M-11.838,-0.367C-11.909,-0.43 -11.923,-0.542 -11.863,-0.617C-11.801,-0.694 -11.688,-0.707 -11.61,-0.646C-11.241,-0.351 -10.851,-0.08 -10.45,0.157C-10.36,0.206 -10.337,0.318 -10.387,0.403C-10.438,0.489 -10.548,0.517 -10.633,0.466C-11.049,0.22 -11.456,-0.063 -11.838,-0.367" style="fill:rgb(237,74,149);fill-rule:nonzero;"/>
                </g>
                <g transform="matrix(1,0,0,1,497.7853,894.1821)">
                    <path d="M0,-10.583C-0.063,-10.639 -0.079,-10.733 -0.036,-10.808C0.014,-10.894 0.125,-10.922 0.21,-10.873C0.633,-10.625 1.039,-10.326 1.392,-9.988C1.463,-9.92 1.466,-9.806 1.397,-9.734C1.329,-9.662 1.211,-9.674 1.143,-9.728C0.808,-10.051 0.427,-10.329 0.029,-10.562L0,-10.583ZM2.726,-7.351C2.704,-7.37 2.688,-7.394 2.677,-7.423C2.515,-7.858 2.301,-8.276 2.043,-8.663C1.988,-8.746 2.011,-8.857 2.094,-8.913C2.177,-8.968 2.285,-8.945 2.343,-8.863C2.616,-8.452 2.841,-8.01 3.014,-7.548C3.048,-7.455 3.001,-7.352 2.908,-7.317C2.844,-7.294 2.774,-7.308 2.726,-7.351M-2.722,-11.423C-2.762,-11.458 -2.786,-11.512 -2.782,-11.57C-2.775,-11.669 -2.689,-11.743 -2.59,-11.736C-2.099,-11.702 -1.611,-11.611 -1.141,-11.467C-1.047,-11.439 -0.993,-11.337 -1.021,-11.242C-1.051,-11.147 -1.152,-11.094 -1.246,-11.122C-1.691,-11.259 -2.152,-11.345 -2.616,-11.378C-2.657,-11.381 -2.694,-11.397 -2.722,-11.423M3.092,-4.525C3.051,-4.562 3.027,-4.617 3.033,-4.676C3.078,-5.139 3.072,-5.608 3.012,-6.07C2.999,-6.168 3.068,-6.258 3.167,-6.272C3.266,-6.283 3.355,-6.215 3.368,-6.116C3.432,-5.628 3.439,-5.131 3.391,-4.641C3.38,-4.542 3.293,-4.47 3.194,-4.48C3.155,-4.484 3.119,-4.5 3.092,-4.525M-5.537,-10.975C-5.557,-10.993 -5.573,-11.016 -5.584,-11.042C-5.621,-11.134 -5.577,-11.239 -5.485,-11.276C-5.029,-11.461 -4.551,-11.594 -4.064,-11.671C-3.965,-11.687 -3.873,-11.62 -3.858,-11.522C-3.842,-11.423 -3.909,-11.331 -4.007,-11.316C-4.468,-11.243 -4.919,-11.118 -5.349,-10.943C-5.416,-10.916 -5.488,-10.931 -5.537,-10.975M2.178,-1.828C2.114,-1.885 2.098,-1.982 2.145,-2.057C2.391,-2.452 2.591,-2.876 2.74,-3.316C2.772,-3.41 2.875,-3.461 2.969,-3.429C3.066,-3.396 3.112,-3.294 3.081,-3.201C2.923,-2.735 2.71,-2.286 2.45,-1.868C2.397,-1.783 2.287,-1.757 2.203,-1.81L2.178,-1.828ZM-7.864,-9.331C-7.938,-9.397 -7.944,-9.511 -7.879,-9.585C-7.551,-9.953 -7.181,-10.284 -6.781,-10.568C-6.699,-10.625 -6.582,-10.604 -6.531,-10.526C-6.473,-10.445 -6.492,-10.333 -6.573,-10.276C-6.951,-10.007 -7.3,-9.694 -7.61,-9.346C-7.676,-9.272 -7.79,-9.266 -7.864,-9.331M0.164,0.19C0.152,0.179 0.141,0.166 0.131,0.151C0.079,0.067 0.105,-0.044 0.189,-0.097C0.582,-0.343 0.948,-0.635 1.277,-0.965C1.348,-1.036 1.454,-1.045 1.532,-0.966C1.603,-0.896 1.603,-0.782 1.533,-0.712C1.184,-0.362 0.796,-0.053 0.379,0.209C0.31,0.251 0.223,0.242 0.164,0.19M-9,-7.506C-9.055,-7.555 -9.076,-7.635 -9.047,-7.707C-8.864,-8.162 -8.626,-8.598 -8.341,-9.003C-8.284,-9.083 -8.172,-9.103 -8.091,-9.046C-8.005,-8.987 -7.991,-8.877 -8.048,-8.796C-8.317,-8.414 -8.541,-8.003 -8.714,-7.573C-8.751,-7.48 -8.856,-7.437 -8.948,-7.473C-8.968,-7.481 -8.985,-7.492 -9,-7.506M-2.531,1.11C-2.564,1.081 -2.586,1.041 -2.591,0.994C-2.6,0.895 -2.528,0.807 -2.43,0.797C-1.966,0.751 -1.508,0.651 -1.069,0.501C-0.975,0.467 -0.873,0.519 -0.841,0.613C-0.809,0.707 -0.859,0.809 -0.953,0.841C-1.418,1 -1.903,1.105 -2.394,1.155C-2.446,1.16 -2.495,1.142 -2.531,1.11M-9.44,-4.69C-9.474,-4.72 -9.497,-4.763 -9.5,-4.811C-9.535,-5.303 -9.515,-5.799 -9.439,-6.285C-9.424,-6.383 -9.333,-6.45 -9.234,-6.435C-9.135,-6.419 -9.069,-6.328 -9.084,-6.23C-9.156,-5.77 -9.175,-5.302 -9.141,-4.838C-9.134,-4.738 -9.209,-4.652 -9.307,-4.645C-9.358,-4.642 -9.405,-4.659 -9.44,-4.69M-5.359,0.75C-5.412,0.702 -5.434,0.625 -5.408,0.553C-5.373,0.46 -5.27,0.413 -5.176,0.447C-4.741,0.609 -4.286,0.721 -3.824,0.779C-3.726,0.792 -3.657,0.882 -3.668,0.98C-3.681,1.079 -3.771,1.148 -3.869,1.136C-4.359,1.074 -4.841,0.956 -5.302,0.784C-5.323,0.776 -5.342,0.765 -5.359,0.75M-8.596,-1.968C-8.61,-1.98 -8.622,-1.995 -8.632,-2.011C-8.881,-2.436 -9.081,-2.89 -9.227,-3.362C-9.256,-3.456 -9.203,-3.557 -9.108,-3.586C-9.013,-3.615 -8.912,-3.559 -8.884,-3.468C-8.746,-3.023 -8.557,-2.594 -8.321,-2.193C-8.272,-2.108 -8.3,-1.998 -8.386,-1.947C-8.455,-1.907 -8.54,-1.918 -8.596,-1.968M-7.351,-0.451C-7.488,-0.574 -7.62,-0.701 -7.745,-0.833C-7.813,-0.905 -7.81,-1.019 -7.738,-1.087C-7.667,-1.155 -7.547,-1.144 -7.484,-1.08C-7.168,-0.748 -6.804,-0.441 -6.417,-0.184C-6.336,-0.136 -6.313,-0.018 -6.367,0.065C-6.422,0.148 -6.533,0.17 -6.616,0.115C-6.872,-0.054 -7.119,-0.245 -7.351,-0.451" style="fill:rgb(237,74,149);fill-rule:nonzero;"/>
                </g>
                <g transform="matrix(1,0,0,1,497.0283,888.6098)">
                    <path d="M0,-3.898C-0.012,-3.909 -0.023,-3.922 -0.032,-3.936C-0.275,-4.319 -0.598,-4.661 -0.963,-4.932C-1.052,-4.998 -1.059,-5.105 -1.001,-5.183C-0.941,-5.263 -0.829,-5.279 -0.749,-5.22C-0.352,-4.926 0.003,-4.549 0.271,-4.128C0.325,-4.045 0.3,-3.934 0.216,-3.881C0.146,-3.836 0.059,-3.846 0,-3.898M-3.686,-5.68C-3.718,-5.709 -3.74,-5.749 -3.745,-5.795C-3.755,-5.894 -3.683,-5.982 -3.584,-5.993C-3.082,-6.045 -2.58,-6.005 -2.094,-5.873C-2.002,-5.845 -1.942,-5.748 -1.968,-5.652C-1.994,-5.557 -2.093,-5.5 -2.189,-5.526C-2.632,-5.646 -3.089,-5.683 -3.548,-5.635C-3.6,-5.629 -3.649,-5.647 -3.686,-5.68M0.546,-1.14C0.502,-1.18 0.478,-1.242 0.489,-1.305C0.568,-1.76 0.562,-2.218 0.473,-2.67C0.454,-2.767 0.518,-2.862 0.615,-2.881C0.712,-2.9 0.806,-2.836 0.826,-2.739C0.924,-2.245 0.93,-1.742 0.842,-1.244C0.826,-1.146 0.733,-1.081 0.635,-1.098C0.601,-1.103 0.57,-1.119 0.546,-1.14M-0.906,1.263L-0.929,1.239C-0.99,1.16 -0.975,1.047 -0.897,0.986C-0.717,0.848 -0.549,0.69 -0.395,0.518C-0.244,0.348 -0.107,0.163 0.01,-0.031C0.062,-0.115 0.172,-0.143 0.257,-0.092C0.346,-0.04 0.369,0.07 0.318,0.155C0.188,0.368 0.04,0.57 -0.127,0.757C-0.295,0.946 -0.48,1.119 -0.677,1.271C-0.746,1.325 -0.843,1.319 -0.906,1.263M-6.923,-3.18C-6.977,-3.228 -6.999,-3.306 -6.972,-3.378C-6.796,-3.845 -6.537,-4.275 -6.201,-4.653C-5.864,-5.032 -5.466,-5.34 -5.018,-5.569C-4.93,-5.615 -4.825,-5.58 -4.776,-5.491C-4.732,-5.402 -4.766,-5.294 -4.854,-5.249C-5.262,-5.04 -5.625,-4.76 -5.932,-4.414C-6.239,-4.069 -6.475,-3.678 -6.636,-3.251C-6.671,-3.158 -6.774,-3.111 -6.867,-3.146C-6.889,-3.154 -6.907,-3.166 -6.923,-3.18M-3.601,2.06C-3.641,2.024 -3.665,1.97 -3.66,1.912C-3.653,1.812 -3.566,1.739 -3.467,1.747C-3.009,1.785 -2.552,1.737 -2.11,1.607C-2.015,1.579 -1.913,1.632 -1.887,1.729C-1.859,1.823 -1.913,1.924 -2.009,1.951C-2.493,2.094 -2.994,2.147 -3.496,2.105C-3.537,2.102 -3.573,2.086 -3.601,2.06M-6.894,-0.37C-6.914,-0.389 -6.93,-0.411 -6.941,-0.438C-7.127,-0.906 -7.225,-1.4 -7.23,-1.905C-7.231,-2.004 -7.152,-2.086 -7.053,-2.086C-6.954,-2.087 -6.872,-2.007 -6.871,-1.909C-6.866,-1.448 -6.777,-0.998 -6.607,-0.571C-6.57,-0.479 -6.616,-0.374 -6.708,-0.337C-6.773,-0.312 -6.844,-0.326 -6.894,-0.37M-5.869,1.09C-5.964,1.005 -6.055,0.917 -6.141,0.824C-6.208,0.751 -6.204,0.638 -6.131,0.57C-6.058,0.502 -5.942,0.5 -5.877,0.579C-5.567,0.911 -5.191,1.19 -4.781,1.39C-4.688,1.437 -4.654,1.541 -4.698,1.63C-4.741,1.719 -4.849,1.757 -4.938,1.713C-5.274,1.55 -5.587,1.34 -5.869,1.09" style="fill:rgb(237,74,149);fill-rule:nonzero;"/>
                </g>
                <g transform="matrix(1,0,0,1,459.0426,870.9349)">
                    <path d="M0,60.816C-1.699,59.302 -3.289,57.649 -4.754,55.862C-5.04,55.515 -4.989,55 -4.641,54.716C-4.293,54.43 -3.782,54.471 -3.494,54.829C4.347,64.387 15.934,70.015 28.294,70.267C40.675,70.52 52.494,65.367 60.721,56.13C69.331,46.465 72.98,33.473 70.732,20.487C68.775,9.175 62.497,-0.622 54.353,-5.075C44.406,-10.516 34.028,-8.025 27.632,-3.881C21.063,0.375 17.298,6.978 17.807,13.351C18.333,19.951 22.983,25.527 29.382,27.231C34.639,28.652 38.447,25.563 40.111,22.487C41.867,19.24 41.563,15.86 39.337,13.877C36.96,11.76 33.717,12.348 32.528,13.683C31.13,15.253 31.656,16.982 32.798,17.999C33.94,19.016 35.718,19.34 37.116,17.77C37.416,17.434 37.931,17.404 38.267,17.704C38.603,18.003 38.633,18.518 38.333,18.854C36.293,21.145 33.459,20.77 31.714,19.216C30.805,18.407 30.229,17.338 30.093,16.208C29.937,14.916 30.358,13.669 31.311,12.599C33.199,10.479 37.496,10.055 40.421,12.66C43.19,15.126 43.641,19.387 41.544,23.263C39.444,27.147 34.738,30.367 28.96,28.805C21.898,26.925 16.763,20.766 16.182,13.481C15.626,6.51 19.674,-0.667 26.745,-5.249C35.41,-10.863 46.288,-11.344 55.135,-6.505C63.708,-1.818 70.299,8.419 72.339,20.21C74.67,33.688 70.88,47.176 61.939,57.214C53.394,66.807 41.118,72.16 28.261,71.897C17.733,71.683 7.744,67.714 0,60.816" style="fill:rgb(237,74,149);fill-rule:nonzero;"/>
                </g>
            </g>
        </g>
    </g>
</svg>
