<?xml version="1.0" encoding="UTF-8" standalone="no"?>
<!DOCTYPE svg PUBLIC "-//W3C//DTD SVG 1.1//EN" "http://www.w3.org/Graphics/SVG/1.1/DTD/svg11.dtd">
<svg width="100%" height="100%" viewBox="0 0 132 171" version="1.1" xmlns="http://www.w3.org/2000/svg" xmlns:xlink="http://www.w3.org/1999/xlink" xml:space="preserve" xmlns:serif="http://www.serif.com/" style="fill-rule:evenodd;clip-rule:evenodd;stroke-linejoin:round;stroke-miterlimit:2;">
    <g transform="matrix(1,0,0,1,-1420.099799,-415.792396)">
        <g transform="matrix(1.333333,0,0,1.333333,0,0)">
            <g id="Portfolio-Tab" serif:id="Portfolio Tab" opacity="0.5">
                <g transform="matrix(0.816832,0.576876,-0.576876,0.816832,0,0)">
                    <text x="1055.861px" y="-347.485px" style="font-family:'Sora-Regular', 'Sora';font-size:24.925px;fill:rgb(94,178,228);">P</text>
                </g>
                <g transform="matrix(0.758101,0.652137,-0.652137,0.758101,0,0)">
                    <text x="1033.608px" y="-448.234px" style="font-family:'Sora-Regular', 'Sora';font-size:24.925px;fill:rgb(94,178,228);">O</text>
                </g>
                <g transform="matrix(0.690438,0.723392,-0.723392,0.690438,0,0)">
                    <text x="1005.666px" y="-549.512px" style="font-family:'Sora-Regular', 'Sora';font-size:24.925px;fill:rgb(94,178,228);">R</text>
                </g>
                <g transform="matrix(0.631234,0.775592,-0.775592,0.631234,0,0)">
                    <text x="976.076px" y="-628.428px" style="font-family:'Sora-Regular', 'Sora';font-size:24.925px;fill:rgb(94,178,228);">T</text>
                </g>
                <g transform="matrix(0.573422,0.81926,-0.81926,0.573422,0,0)">
                    <text x="942.653px" y="-698.506px" style="font-family:'Sora-Regular', 'Sora';font-size:24.925px;fill:rgb(94,178,228);">F</text>
                </g>
                <g transform="matrix(0.498027,0.867162,-0.867162,0.498027,0,0)">
                    <text x="889.995px" y="-781.234px" style="font-family:'Sora-Regular', 'Sora';font-size:24.926px;fill:rgb(94,178,228);">O</text>
                </g>
                <g transform="matrix(0.418441,0.908244,-0.908244,0.418441,0,0)">
                    <text x="837.647px" y="-859.468px" style="font-family:'Sora-Regular', 'Sora';font-size:24.925px;fill:rgb(94,178,228);">L</text>
                </g>
                <g transform="matrix(0.368006,0.929823,-0.929823,0.368006,0,0)">
                    <text x="802.651px" y="-904.774px" style="font-family:'Sora-Regular', 'Sora';font-size:24.925px;fill:rgb(94,178,228);">I</text>
                </g>
                <g transform="matrix(0.297335,0.954773,-0.954773,0.297335,0,0)">
                    <text x="740.263px" y="-963.186px" style="font-family:'Sora-Regular', 'Sora';font-size:24.925px;fill:rgb(94,178,228);">O</text>
                </g>
            </g>
        </g>
    </g>
</svg>
