<?xml version="1.0" encoding="UTF-8" standalone="no"?>
<!DOCTYPE svg PUBLIC "-//W3C//DTD SVG 1.1//EN" "http://www.w3.org/Graphics/SVG/1.1/DTD/svg11.dtd">
<svg width="100%" height="100%" viewBox="0 0 124 173" version="1.1" xmlns="http://www.w3.org/2000/svg" xmlns:xlink="http://www.w3.org/1999/xlink" xml:space="preserve" xmlns:serif="http://www.serif.com/" style="fill-rule:evenodd;clip-rule:evenodd;stroke-linejoin:round;stroke-miterlimit:2;">
    <g transform="matrix(1,0,0,1,-1006.879647,-701.727609)">
        <g transform="matrix(1.333333,0,0,1.333333,0,0)">
            <g id="Subscribe-Tab" serif:id="Subscribe Tab" opacity="0.5">
                <g transform="matrix(0.2372,0.971461,-0.971461,0.2372,0,0)">
                    <text x="693.415px" y="-608.142px" style="font-family:'Sora-Regular', 'Sora';font-size:24.926px;fill:rgb(94,178,228);">S</text>
                </g>
                <g transform="matrix(0.326713,0.945124,-0.945124,0.326713,0,0)">
                    <text x="765.056px" y="-539.169px" style="font-family:'Sora-Regular', 'Sora';font-size:24.926px;fill:rgb(94,178,228);">U</text>
                </g>
                <g transform="matrix(0.413899,0.910323,-0.910323,0.413899,0,0)">
                    <text x="832.798px" y="-463.228px" style="font-family:'Sora-Regular', 'Sora';font-size:24.926px;fill:rgb(94,178,228);">B</text>
                </g>
                <g transform="matrix(0.491177,0.87106,-0.87106,0.491177,0,0)">
                    <text x="887.568px" y="-387.857px" style="font-family:'Sora-Regular', 'Sora';font-size:24.926px;fill:rgb(94,178,228);">S</text>
                </g>
                <g transform="matrix(0.571711,0.820455,-0.820455,0.571711,0,0)">
                    <text x="938.399px" y="-300.044px" style="font-family:'Sora-Regular', 'Sora';font-size:24.926px;fill:rgb(94,178,228);">C</text>
                </g>
                <g transform="matrix(0.648372,0.761324,-0.761324,0.648372,0,0)">
                    <text x="983.882px" y="-205.972px" style="font-family:'Sora-Regular', 'Sora';font-size:24.926px;fill:rgb(94,178,228);">R</text>
                </g>
                <g transform="matrix(0.69702,0.717052,-0.717052,0.69702,0,0)">
                    <text x="1013.672px" y="-139.817px" style="font-family:'Sora-Regular', 'Sora';font-size:24.926px;fill:rgb(94,178,228);">I</text>
                </g>
                <g transform="matrix(0.741332,0.671139,-0.671139,0.741332,0,0)">
                    <text x="1029.203px" y="-74.208px" style="font-family:'Sora-Regular', 'Sora';font-size:24.926px;fill:rgb(94,178,228);">B</text>
                </g>
                <g transform="matrix(0.794401,0.607393,-0.607393,0.794401,0,0)">
                    <text x="1049.745px" y="12.766px" style="font-family:'Sora-Regular', 'Sora';font-size:24.926px;fill:rgb(94,178,228);">E</text>
                </g>
            </g>
        </g>
    </g>
</svg>
